<svg width="217" height="217" viewBox="0 0 217 217" fill="none" xmlns="http://www.w3.org/2000/svg">
<path d="M69.1392 82.8509C67.99 76.6783 69.7884 70.5666 73.9903 66.3647L95.4663 44.8887C99.6796 40.6754 105.818 38.8888 112.004 40.0757C117.47 41.1245 122.601 43.8729 126.647 47.9189L173.261 94.5334C177.359 98.6308 180.129 103.836 181.16 109.374C182.309 115.547 180.511 121.659 176.309 125.861L154.833 147.336C150.62 151.55 144.481 153.336 138.295 152.149C132.83 151.101 127.698 148.352 123.653 144.306L77.0379 97.6917C72.9406 93.5944 70.1703 88.3892 69.1392 82.8509Z" fill="url(#paint0_linear_1195_7921)"/>
<path d="M59.0454 83.4298C58.0014 76.1311 60.4687 68.7491 65.7006 63.5172L92.4411 36.7767C97.6873 31.5305 105.101 29.076 112.413 30.1642C118.874 31.1258 124.847 34.1315 129.457 38.7417L131.363 40.6475C133.115 42.3999 133.115 45.241 131.363 46.9934L110.815 67.5416C108.702 69.6547 108.692 73.0712 110.794 75.1726C112.895 77.274 116.312 77.2646 118.425 75.1516L137.036 56.5399C139.858 53.718 144.433 53.718 147.255 56.5399V56.5399C150.077 59.3619 150.077 63.9371 147.255 66.759L128.644 85.3707C126.531 87.4837 126.521 90.9002 128.623 93.0016C130.724 95.103 134.141 95.0936 136.254 92.9806L154.865 74.3689C157.687 71.547 162.262 71.547 165.084 74.3689V74.3689C167.906 77.1909 167.906 81.7661 165.084 84.588L146.473 103.2C144.36 105.313 144.35 108.729 146.452 110.831C148.553 112.932 151.97 112.923 154.083 110.81L174.631 90.2614C176.383 88.509 179.224 88.509 180.977 90.2614L182.572 91.8563C187.24 96.5249 190.268 102.585 191.205 109.133C192.249 116.432 189.782 123.814 184.55 129.046L157.809 155.787C152.563 161.033 145.15 163.487 137.837 162.399C131.376 161.437 125.403 158.432 120.793 153.822L119.105 152.133C117.353 150.381 117.353 147.54 119.105 145.787L139.653 125.239C141.766 123.126 141.776 119.71 139.674 117.608C137.573 115.507 134.156 115.516 132.043 117.629L113.432 136.241C110.61 139.063 106.034 139.063 103.212 136.241V136.241C100.391 133.419 100.391 128.844 103.212 126.022L121.824 107.41C123.937 105.297 123.947 101.881 121.845 99.7791C119.744 97.6777 116.327 97.6871 114.214 99.8001L95.6025 118.412C92.7806 121.234 88.2054 121.234 85.3835 118.412V118.412C82.5615 115.59 82.5615 111.015 85.3835 108.193L103.995 89.5811C106.108 87.468 106.118 84.0515 104.016 81.9501C101.915 79.8487 98.4982 79.8581 96.3852 81.9711L75.8369 102.519C74.0845 104.272 71.2434 104.272 69.4911 102.519L67.6787 100.707C63.0101 96.0384 59.9821 89.9787 59.0454 83.4298Z" fill="#4E8AFF" fill-opacity="0.2"/>
<path d="M142.273 148.864L142.273 191.538" stroke="url(#paint1_linear_1195_7921)" stroke-width="13.125"/>
<path d="M48.166 65.3099C48.166 62.6901 45.1951 61.4064 43.6413 63.5157C40.0823 68.3467 37.9756 74.3377 37.9756 80.8265C37.9756 87.3153 40.0823 93.3063 43.6413 98.1373C45.1951 100.247 48.166 98.9629 48.166 96.3431L48.166 65.3099Z" fill="#D4E3FF"/>
<path d="M31.4492 58.4427C31.4492 54.3828 26.8608 52.3656 24.4267 55.6149C18.9971 62.8631 15.7808 71.8655 15.7808 81.6191C15.7808 91.3728 18.9971 100.375 24.4267 107.623C26.8608 110.873 31.4492 108.855 31.4492 104.796L31.4492 58.4427Z" fill="#A1C1FF"/>
<defs>
<linearGradient id="paint0_linear_1195_7921" x1="82" y1="43.0005" x2="142" y2="149" gradientUnits="userSpaceOnUse">
<stop stop-color="#7FAAFF"/>
<stop offset="0.695833" stop-color="#E0E1FF"/>
</linearGradient>
<linearGradient id="paint1_linear_1195_7921" x1="142.773" y1="148.864" x2="142.773" y2="191.538" gradientUnits="userSpaceOnUse">
<stop stop-color="#B1CBFF"/>
<stop offset="1" stop-color="#B1CBFF" stop-opacity="0"/>
</linearGradient>
</defs>
</svg>
