<svg width="88" height="88" viewBox="0 0 88 88" fill="none" xmlns="http://www.w3.org/2000/svg">
<circle cx="44" cy="44" r="44" fill="#4E8AFF"/>
<path d="M27.8926 44.8681V43.1072C27.8926 36.3909 33.3372 30.9463 40.0535 30.9463H59.7888V44.7415C59.7888 47.4731 58.6995 50.092 56.7621 52.0176C54.8785 53.8899 53.7944 56.4196 53.7377 59.0748L53.6423 63.5428H33.6716L33.7643 59.2013C33.8225 56.4776 32.7618 53.849 30.8296 51.9284C28.9497 50.0598 27.8926 47.5187 27.8926 44.8681Z" fill="#A7C5FF"/>
<rect x="27.8926" y="20.9473" width="9.43676" height="20.7609" rx="4.71838" fill="#A7C5FF"/>
<rect x="51.6738" y="22.2686" width="9.43676" height="17.9299" rx="4.71838" fill="#CADCFF"/>
<rect x="35.8203" y="17.5469" width="9.43676" height="21.5158" rx="4.71838" fill="#CADCFF"/>
<rect x="43.7461" y="17.5469" width="9.43676" height="22.6482" rx="4.71838" fill="#E5EEFF"/>
<path d="M36.6579 30.9463H41.9144C43.9846 30.9463 45.6628 32.6245 45.6628 34.6947C45.6628 37.225 43.6117 39.2762 41.0814 39.2762H35.1628C48.098 39.2762 46.3041 56.2781 46.3041 63.5478H33.8409V59.2955C33.8409 56.5986 32.7713 54.0118 30.8667 52.1024C28.9622 50.1929 27.8926 47.6061 27.8926 44.9092V39.7116C27.8926 34.8706 31.8169 30.9463 36.6579 30.9463Z" fill="#F7FAFF"/>
<rect x="30.9277" y="56.4492" width="26.1835" height="13.9997" rx="1.92168" fill="#A7C5FF"/>
</svg>
