<svg width="139" height="70" viewBox="0 0 139 70" fill="none" xmlns="http://www.w3.org/2000/svg">
<path d="M22.5052 0.672146C23.3008 -0.224049 24.6992 -0.224049 25.4948 0.672146L32 8H16L22.5052 0.672146Z" fill="#160F35" fill-opacity="0.7"/>
<rect y="8" width="139" height="62" rx="6" fill="#160F35" fill-opacity="0.7"/>
<path d="M21.0596 22.6035H11.9336V23.8926H19.4336C19.4336 24.2002 19.4336 24.5078 19.4189 24.8301L11.5967 25.0205L11.7871 26.2803L19.353 25.9653C19.3091 26.3755 19.2505 26.8076 19.1626 27.2764H10.4688V28.5801H22.4805V27.2764H20.7812C21.0669 25.8628 21.0669 24.7349 21.0596 23.7021V22.6035ZM11.8018 30.7773H19.5068V31.6855H11.8311V35.1426H21.6016V33.8682H13.4424V32.8721H21.1328V29.5322H11.8018V30.7773ZM34.2836 22.0762H32.643V30.1768H34.2836V22.0762ZM23.9271 24.1416H28.4242V25.4893H23.9564V29.5615H25.0844C27.6479 29.5688 29.4423 29.5029 31.5297 29.166L31.3246 27.8623C29.435 28.1406 27.8163 28.2212 25.5531 28.2285V26.749H30.0355V22.8232H23.9271V24.1416ZM25.2455 32.125H32.643V35.3037H34.2836V30.792H25.2455V32.125ZM42.5271 24.1709H40.1102V22.4424H38.4988V24.1709H36.0379V25.4746H42.5271V24.1709ZM36.4188 29.2539C36.4041 31.0923 37.6272 32.374 39.3045 32.374C40.9891 32.374 42.1902 31.0923 42.1902 29.2539C42.1902 27.4521 40.9891 26.1704 39.3045 26.1777C37.6272 26.1704 36.4041 27.4521 36.4188 29.2539ZM37.8543 29.2539C37.847 28.2139 38.4476 27.5254 39.3045 27.5254C40.1541 27.5254 40.7547 28.2139 40.7547 29.2539C40.7547 30.3232 40.1541 30.9897 39.3045 30.9824C38.4476 30.9897 37.847 30.3232 37.8543 29.2539ZM43.0838 34.7031H44.6072V28.8291H45.8963V35.3037H47.449V22.0615H45.8963V27.5107H44.6072V22.3398H43.0838V34.7031ZM53.7736 25.2402V23.1309H52.1184V25.2402C52.111 27.7158 50.9099 30.2646 48.7492 31.2754L49.7746 32.5938C51.298 31.8247 52.382 30.3013 52.9606 28.4702C53.5246 30.2061 54.5793 31.6123 56.0734 32.3447L57.0549 31.041C54.9455 30.1182 53.7663 27.7012 53.7736 25.2402ZM55.59 27.6572H58.3732V35.3184H59.9846V22.0615H58.3732V26.3389H55.59V27.6572ZM77.1748 27.1738H75.395C75.7759 25.4893 75.7759 24.2148 75.7832 23.3359V22.5889H71.418V23.8926H74.1792C74.1646 24.7129 74.0986 25.7749 73.7544 27.1738H70.1875C70.605 25.5332 70.605 24.2515 70.6123 23.3652V22.5889H66.2324V23.8926H69.0083C68.9937 24.7202 68.9131 25.7676 68.5103 27.1738H65.1045V28.4775H77.1748V27.1738ZM66.4521 34.9375H67.1553C68.2686 34.9448 69.4185 34.8789 70.7148 34.5273L70.5244 33.209C69.6528 33.458 68.8105 33.5679 68.0342 33.6118V29.9717H66.4521V34.9375ZM70.4365 31.2754H76.4863V30.0596H74.2891V29.0635H72.6924V30.0596H70.4365V31.2754ZM71.0957 33.4873C71.0957 34.6079 72.1138 35.2964 73.498 35.3037C74.8604 35.2964 75.8711 34.6079 75.8711 33.4873C75.8711 32.396 74.8604 31.6782 73.498 31.6709C72.1138 31.6782 71.0957 32.396 71.0957 33.4873ZM72.4873 33.4873C72.48 33.0405 72.9048 32.7988 73.498 32.7842C74.0767 32.7988 74.4941 33.0405 74.4941 33.4873C74.4941 33.9414 74.0767 34.1758 73.498 34.1758C72.9048 34.1758 72.48 33.9414 72.4873 33.4873ZM81.5365 23.0283C79.5443 23.0283 78.1308 24.8447 78.1381 27.7012C78.1308 30.5796 79.5443 32.3887 81.5365 32.3887C83.3749 32.3887 84.7226 30.814 84.8983 28.2578H87.4105V35.3184H89.0219V22.0615H87.4105V26.9395H84.8837C84.6493 24.5225 83.3236 23.0283 81.5365 23.0283ZM79.7055 27.7012C79.6981 25.6797 80.4452 24.4932 81.5365 24.4932C82.6352 24.4932 83.3749 25.6797 83.3822 27.7012C83.3749 29.7373 82.6352 30.9165 81.5365 30.9238C80.4452 30.9165 79.6981 29.7373 79.7055 27.7012ZM101.733 22.0615H100.122V28.9902H101.733V22.0615ZM90.9666 25.6357C90.9666 27.4082 92.4607 28.6533 94.4822 28.6533C96.4891 28.6533 97.9832 27.4082 97.9978 25.6357C97.9832 23.8779 96.4891 22.6182 94.4822 22.6328C92.4607 22.6182 90.9666 23.8779 90.9666 25.6357ZM92.3289 35.1426H93.1785C95.2586 35.1426 96.4085 35.1133 97.8221 34.835L97.6609 33.6338C96.4817 33.8608 95.4856 33.9048 93.9109 33.9194V32.8428H96.8406V29.5322H92.3289V30.748H95.2439V31.7002H92.3289V35.1426ZM92.5486 25.6357C92.5486 24.6177 93.3689 23.9658 94.4822 23.9658C95.5955 23.9658 96.4085 24.6177 96.4158 25.6357C96.4085 26.6538 95.5955 27.335 94.4822 27.335C93.3689 27.335 92.5486 26.6538 92.5486 25.6357ZM97.368 30.8359H100.151V35.2305H101.733V29.5322H97.368V30.8359ZM114.606 22.0615H112.965V35.3037H114.606V22.0615ZM103.634 31.6562L104.484 32.96C109.12 30.7554 110.651 27.4082 110.651 23.4678H104.308V24.7568H108.995C108.702 27.7671 107.106 30.0083 103.634 31.6562ZM128.445 28.0674H116.345V29.2979H128.445V28.0674ZM117.752 31.2314H125.369V32.0518H117.766V35.1572H127.376V34.0293H119.392V33.1064H126.98V30.0889H117.752V31.2314ZM117.839 23.4824H125.325V24.2881H117.883V27.3203H127.185V26.207H119.495V25.3428H126.951V22.3545H117.839V23.4824ZM22.5391 53.4619H19.3457V50.7373H21.4404V49.4189H19.5508V45.4932H21.4844V44.1895H11.4355V45.4932H13.3398V49.4189H11.4795V50.7373H13.5742V53.4619H10.4395V54.7803H22.5391V53.4619ZM14.9658 49.4189V45.4932H17.9395V49.4189H14.9658ZM15.2002 53.4619V50.7373H17.7197V53.4619H15.2002ZM28.2631 46.2402V44.1309H26.6078V46.2402C26.6005 48.7964 25.3114 51.3232 23.1068 52.2754L24.1029 53.6377C25.7069 52.8833 26.8495 51.3599 27.4574 49.4995C28.0727 51.228 29.1859 52.627 30.7094 53.3301L31.6762 52.0264C29.5302 51.1035 28.2484 48.6719 28.2631 46.2402ZM32.6283 56.3184H34.2689V43.0615H32.6283V56.3184ZM42.5271 45.1709H40.1102V43.4424H38.4988V45.1709H36.0379V46.4746H42.5271V45.1709ZM36.4188 50.2539C36.4041 52.0923 37.6272 53.374 39.3045 53.374C40.9891 53.374 42.1902 52.0923 42.1902 50.2539C42.1902 48.4521 40.9891 47.1704 39.3045 47.1777C37.6272 47.1704 36.4041 48.4521 36.4188 50.2539ZM37.8543 50.2539C37.847 49.2139 38.4476 48.5254 39.3045 48.5254C40.1541 48.5254 40.7547 49.2139 40.7547 50.2539C40.7547 51.3232 40.1541 51.9897 39.3045 51.9824C38.4476 51.9897 37.847 51.3232 37.8543 50.2539ZM43.0838 55.7031H44.6072V49.8291H45.8963V56.3037H47.449V43.0615H45.8963V48.5107H44.6072V43.3398H43.0838V55.7031ZM60.9807 53.374H55.7072V50.7959H59.6037V43.9404H57.9777V46.1084H51.84V43.9404H50.2141V50.7959H54.0959V53.374H48.8811V54.707H60.9807V53.374ZM51.84 49.4775V47.4121H57.9777V49.4775H51.84ZM65.8258 46.5332V44.2334H64.2584V46.6064C64.2511 48.8623 63.4015 51.1987 61.4752 52.3633L62.4859 53.5791C63.7311 52.8174 64.5807 51.4697 65.0567 49.8804C65.4962 51.3232 66.2726 52.5537 67.4664 53.2715L68.36 52.0264C66.5655 50.8984 65.8331 48.6719 65.8258 46.5332ZM66.9391 48.9648H68.8287V55.6592H70.3668V43.2959H68.8287V47.6172H66.9391V48.9648ZM71.5533 56.3037H73.1207V43.0615H71.5533V56.3037ZM86.6084 53.3594H83.8252V49.9756C84.8506 49.3677 85.4731 48.4375 85.4658 47.2803C85.4731 45.1709 83.3931 43.7793 80.5293 43.7793C77.6802 43.7793 75.6147 45.1709 75.6221 47.2803C75.6147 48.4521 76.252 49.4043 77.3066 50.0122V53.3594H74.5088V54.6924H86.6084V53.3594ZM77.2188 47.2803C77.2114 45.9033 78.5518 45.061 80.5293 45.0684C82.4995 45.061 83.8691 45.9033 83.8691 47.2803C83.8691 48.6353 82.4995 49.4995 80.5293 49.4922C78.5518 49.4995 77.2114 48.6353 77.2188 47.2803ZM78.918 53.3594V50.6055C79.416 50.708 79.958 50.7666 80.5293 50.7666C81.1152 50.7666 81.6646 50.708 82.1699 50.5981V53.3594H78.918ZM88.934 55.1172C89.5419 55.1172 90.0619 54.6045 90.0619 53.9746C90.0619 53.3594 89.5419 52.854 88.934 52.8467C88.3041 52.854 87.7841 53.3594 87.7914 53.9746C87.7841 54.6045 88.3041 55.1172 88.934 55.1172Z" fill="white"/>
</svg>
