<svg width="217" height="217" viewBox="0 0 217 217" fill="none" xmlns="http://www.w3.org/2000/svg">
<path d="M54 126.247V100.141C54 87.8512 63.963 77.8882 76.253 77.8882H158.466V126.247C158.466 133.16 155.709 139.787 150.806 144.66L146.366 149.073C141.6 153.811 138.856 160.213 138.713 166.932L138.335 184.647H72.9273L73.2917 167.582C73.4433 160.479 70.6771 153.624 65.638 148.615L61.6596 144.66C56.7568 139.787 54 133.16 54 126.247Z" fill="url(#paint0_linear_1195_7528)"/>
<rect x="54" y="45.1255" width="30.907" height="67.9953" rx="15.4535" fill="url(#paint1_linear_1195_7528)"/>
<rect x="131.885" y="49.4536" width="30.907" height="58.7233" rx="15.4535" fill="url(#paint2_linear_1195_7528)"/>
<rect x="105.925" y="34" width="30.907" height="74.1767" rx="15.4535" fill="url(#paint3_linear_1195_7528)"/>
<rect x="79.9609" y="34" width="30.907" height="70.4679" rx="15.4535" fill="url(#paint4_linear_1195_7528)"/>
<path d="M76.253 77.2695H101.008C106.129 77.2695 110.281 81.4208 110.281 86.5416V89.0979C110.281 97.6326 103.362 104.551 94.8271 104.551H77.811C120.176 104.551 114.301 160.235 114.301 184.045H73.4817V167.059C73.4817 160.185 70.7555 153.592 65.901 148.725L61.5807 144.394C56.7262 139.527 54 132.933 54 126.059V99.5225C54 87.2325 63.963 77.2695 76.253 77.2695Z" fill="url(#paint5_linear_1195_7528)"/>
<defs>
<linearGradient id="paint0_linear_1195_7528" x1="105.762" y1="82.3271" x2="119.605" y2="185.249" gradientUnits="userSpaceOnUse">
<stop stop-color="#4182FF"/>
<stop offset="0.727219" stop-color="#D8D9FF"/>
<stop offset="1" stop-color="white"/>
</linearGradient>
<linearGradient id="paint1_linear_1195_7528" x1="97.8879" y1="60.156" x2="77.6369" y2="29.3773" gradientUnits="userSpaceOnUse">
<stop stop-color="#84AEFF"/>
<stop offset="1" stop-color="#D8D9FF"/>
</linearGradient>
<linearGradient id="paint2_linear_1195_7528" x1="136.521" y1="106.013" x2="171.339" y2="94.45" gradientUnits="userSpaceOnUse">
<stop stop-color="#84AEFF"/>
<stop offset="1" stop-color="#D8D9FF"/>
</linearGradient>
<linearGradient id="paint3_linear_1195_7528" x1="117.36" y1="110.031" x2="164.681" y2="81.5064" gradientUnits="userSpaceOnUse">
<stop stop-color="#84AEFF"/>
<stop offset="1" stop-color="#D8D9FF"/>
</linearGradient>
<linearGradient id="paint4_linear_1195_7528" x1="125.703" y1="112.195" x2="141.754" y2="51.5167" gradientUnits="userSpaceOnUse">
<stop stop-color="#84AEFF"/>
<stop offset="1" stop-color="#D8D9FF"/>
</linearGradient>
<linearGradient id="paint5_linear_1195_7528" x1="64.8174" y1="80.3602" x2="72.0565" y2="185.851" gradientUnits="userSpaceOnUse">
<stop stop-color="#A7C5FF"/>
<stop offset="0.719545" stop-color="#D8D9FF"/>
<stop offset="1" stop-color="white"/>
</linearGradient>
</defs>
</svg>
