<svg width="88" height="88" viewBox="0 0 88 88" fill="none" xmlns="http://www.w3.org/2000/svg">
<circle cx="44" cy="44" r="44" fill="#4E8AFF"/>
<path d="M34.0322 50.2347C33.6858 48.6996 32.1605 47.7358 30.6253 48.0822C29.0902 48.4286 28.1265 49.9538 28.4728 51.489C29.4566 55.8491 33.6722 63.6719 43.0305 66.054C43.2589 66.1121 43.4227 66.3155 43.4438 66.5502C43.6958 69.3521 46.0504 71.5478 48.9179 71.5478C51.6482 71.5478 53.9136 69.557 54.3416 66.9477C54.4178 66.4827 54.7367 66.0771 55.1912 65.9523C64.2807 63.4566 68.3942 55.7889 69.3643 51.489C69.7107 49.9538 68.747 48.4286 67.2118 48.0822C65.6766 47.7358 64.1513 48.6996 63.805 50.2347C63.0122 53.7484 58.941 61.0624 48.9186 61.0624C38.8961 61.0624 34.8249 53.7484 34.0322 50.2347Z" fill="#A7C5FF"/>
<path d="M39.1543 32.4075C39.1543 28.4599 42.3545 25.2598 46.3021 25.2598H51.5199C55.4676 25.2598 58.6677 28.4599 58.6677 32.4075V43.3794C58.6677 48.7679 54.2995 53.1361 48.911 53.1361C43.5225 53.1361 39.1543 48.7679 39.1543 43.3794V32.4075Z" fill="#A7C5FF"/>
<path d="M36.5263 29.3823C36.4566 29.9387 36.9148 30.3993 37.4756 30.3993H49.1465C50.1184 30.3993 50.9062 31.1872 50.9062 32.1591C50.9062 33.1309 50.1184 33.9188 49.1465 33.9188H37.4606C36.9053 33.9188 36.4551 34.369 36.4551 34.9243V36.4327C36.4551 36.988 36.9053 37.4382 37.4606 37.4382H49.1465C50.1184 37.4382 50.9062 38.2261 50.9062 39.198C50.9062 40.1698 50.1184 40.9577 49.1465 40.9577H37.4606C36.9053 40.9577 36.4551 41.4079 36.4551 41.9633V43.4716C36.4551 44.0269 36.9053 44.4771 37.4606 44.4771H49.1465C50.1184 44.4771 50.9062 45.265 50.9062 46.2369C50.9062 47.2087 50.1184 47.9966 49.1465 47.9966H38.2786C37.6094 47.9966 37.1274 48.6395 37.3812 49.2587C39.2417 53.797 43.7035 56.9936 48.912 56.9936C55.7918 56.9936 61.369 51.4164 61.369 44.5366V30.5283C61.369 25.4882 57.2831 21.4023 52.243 21.4023H45.581C40.9291 21.4023 37.09 24.8831 36.5263 29.3823Z" fill="#E5EEFF"/>
<path d="M29.8926 27.584C29.8926 26.6326 28.8136 26.1664 28.2493 26.9324C26.9568 28.6869 26.1917 30.8627 26.1917 33.2193C26.1917 35.5758 26.9568 37.7516 28.2493 39.5061C28.8136 40.2721 29.8926 39.8059 29.8926 38.8545L29.8926 27.584Z" fill="#A7C5FF"/>
<path d="M23.8203 25.0904C23.8203 23.616 22.1539 22.8834 21.2699 24.0634C19.298 26.6958 18.13 29.9652 18.13 33.5075C18.13 37.0498 19.298 40.3192 21.2699 42.9516C22.1539 44.1317 23.8203 43.3991 23.8203 41.9246L23.8203 25.0904Z" fill="#CADCFF"/>
</svg>
