<svg width="217" height="217" viewBox="0 0 217 217" fill="none" xmlns="http://www.w3.org/2000/svg">
<rect width="217" height="217" fill="white"/>
<path d="M174.883 154.125C171.765 145.87 163.82 140 154.514 140C145.207 140 137.262 145.863 134.144 154.118C128.309 155.655 124 160.985 124 167.333C124 174.884 130.093 181 137.609 181H171.391C178.907 181 185 174.884 185 167.333C185 160.999 180.704 155.669 174.883 154.125Z" fill="#EEEFFF"/>
<path d="M88.727 166.799C92.6215 171.259 97.8728 174.472 103.765 176.001C109.657 177.53 115.904 177.299 121.653 175.341C127.402 173.383 132.373 169.793 135.89 165.059C139.407 160.326 141.305 154.833 141.305 148.89C141.305 122.348 162.761 116.184 162.761 91.7436C162.761 78.1735 159.246 66.6681 149.12 57.0726C138.994 47.4771 125.928 44 111.607 44C97.287 44 87.062 49.3907 76.936 58.9862C67.2736 70.1453 65 85.4915 65 95.1661C65 115.615 74.6624 148.89 88.727 166.799Z" fill="#CADCFF"/>
<path d="M78.6908 88.133C78.3468 84.0635 79.1975 80.0628 80.5016 76.8568C81.7339 73.8271 83.8378 75.1609 83.242 78.3769C78.0567 106.366 110.841 83.5093 119.076 101.498C128.006 121.004 102.523 126.641 101.302 134.658C100.08 142.676 96.4938 145.195 93.3505 145.461C90.2071 145.727 86.5635 143.819 86.165 139.104C85.898 135.945 89.6402 131.528 86.8554 124.799C84.0705 118.07 87.4219 116.52 90.8796 116.228C94.3372 115.936 104.108 115.426 104.732 111.575C105.356 107.723 100.38 108.777 96.1611 107.551C91.942 106.324 79.7801 101.021 78.6908 88.133Z" fill="url(#paint0_linear_1202_7646)"/>
<path d="M141.732 111.498C150.746 90.5752 144.827 72.0606 137.181 65.2489C125.467 54.8138 110.071 56.8449 100.049 61.1428C98.1982 61.9364 99.0983 64.513 101.112 64.5497C109.038 64.6943 119.645 66.9651 127.945 74.8315C136.857 83.2783 138.631 98.8191 138.172 110.431C138.09 112.512 140.908 113.411 141.732 111.498Z" fill="url(#paint1_linear_1202_7646)"/>
<path d="M82.898 54.914C78.8598 44.4447 68.5704 37 56.5176 37C44.4648 37 34.1754 44.436 30.1373 54.9053C22.5811 56.8553 17 63.6153 17 71.6667C17 81.2433 24.8912 89 34.6251 89H78.3749C88.1088 89 96 81.2433 96 71.6667C96 63.6327 90.4365 56.8727 82.898 54.914Z" fill="url(#paint2_linear_1202_7646)"/>
<defs>
<linearGradient id="paint0_linear_1202_7646" x1="80.19" y1="108.705" x2="117.889" y2="136.32" gradientUnits="userSpaceOnUse">
<stop stop-color="#6B9AFF"/>
<stop offset="1" stop-color="#D4D7FF" stop-opacity="0.6"/>
</linearGradient>
<linearGradient id="paint1_linear_1202_7646" x1="133.551" y1="46.0738" x2="119.626" y2="120.176" gradientUnits="userSpaceOnUse">
<stop stop-color="#6B9AFF"/>
<stop offset="1" stop-color="#DDDEFF" stop-opacity="0.6"/>
</linearGradient>
<linearGradient id="paint2_linear_1202_7646" x1="91.9487" y1="83.5" x2="37.1392" y2="16.5201" gradientUnits="userSpaceOnUse">
<stop stop-color="#B0B3FF"/>
<stop offset="1" stop-color="#4E8AFF"/>
</linearGradient>
</defs>
</svg>
