<svg width="88" height="88" viewBox="0 0 88 88" fill="none" xmlns="http://www.w3.org/2000/svg">
<circle cx="44" cy="44" r="44" fill="#4E8AFF"/>
<path d="M48.2676 58.717C48.2676 61.7765 50.8822 64.2568 54.1074 64.2568H65.787C69.0123 64.2568 71.6268 61.7765 71.6268 58.717C71.6268 55.6575 69.0123 53.1773 65.787 53.1773C65.7257 53.1773 65.6646 53.1782 65.6038 53.1799C64.9565 50.7893 62.6693 49.0225 59.9472 49.0225C57.2251 49.0225 54.9379 50.7893 54.2906 53.1799C54.2809 53.1797 54.2711 53.1794 54.2614 53.1792L54.2347 53.1786C54.1924 53.1777 54.1499 53.1773 54.1074 53.1773C50.8822 53.1773 48.2676 55.6575 48.2676 58.717Z" fill="#CADCFF"/>
<path d="M36.0314 64.3176C37.3212 65.9576 39.111 67.1835 41.1568 67.8281C43.2027 68.4727 45.405 68.5047 47.4635 67.9196C49.5221 67.3346 51.3367 66.161 52.66 64.5589C53.9832 62.9568 54.7504 61.0584 54.858 58.9671C55.3383 49.6266 63.0004 47.8456 63.4427 39.2449C63.6882 34.4695 62.6595 30.3571 59.2697 26.7971C55.8799 23.2371 51.3449 21.777 46.3055 21.5179C41.266 21.2587 37.5702 22.9707 33.8331 26.1642C30.2309 29.9163 29.1531 35.2756 28.978 38.6802C28.6079 45.8764 31.406 57.761 36.0314 64.3176Z" fill="#A7C5FF"/>
<path d="M33.7536 35.5581C33.7449 35.2954 33.7516 35.0411 33.7716 34.7954C33.9858 32.1659 36.1617 33.4016 37.3641 35.7499C39.6221 40.1596 46.0816 35.9745 47.893 41.8876C49.5106 47.168 42.5422 49.9829 40.9766 53.464C39.9961 55.6443 39.1553 56.8562 38.0443 56.8928C36.9333 56.9294 35.9157 56.4551 35.8608 54.7886C35.824 53.6721 37.2062 51.8351 36.1325 49.5043C35.2882 47.6712 36.4827 46.498 37.7038 46.5608C39.8933 46.6734 43.0612 45.4571 42.8583 43.8366C42.6028 41.7961 40.0456 42.2061 38.5831 41.6982C37.1205 41.1904 33.8722 39.158 33.7536 35.5581Z" fill="#4E8AFF"/>
<path d="M57.1299 41.94C58.5677 36.3276 57.0173 31.5293 54.9201 29.4582C51.8435 26.42 47.836 26.0251 44.5112 26.6343C42.7062 26.965 43.1049 28.7522 44.9056 29.1057C47.1208 29.5406 49.4264 30.4888 51.4966 32.6632C53.6432 34.918 54.3345 38.0477 54.4317 41.2111C54.4932 43.2101 56.6336 43.8774 57.1299 41.94Z" fill="#4E8AFF"/>
<path d="M14.9082 31.5187C14.9082 35.4152 18.1085 38.574 22.0563 38.574H36.3526C40.3004 38.574 43.5008 35.4152 43.5008 31.5187C43.5008 27.6221 40.3004 24.4634 36.3526 24.4634C36.2776 24.4634 36.2028 24.4645 36.1283 24.4668C35.336 21.422 32.5365 19.1719 29.2045 19.1719C25.8725 19.1719 23.073 21.422 22.2807 24.4668C22.2687 24.4664 22.2568 24.4661 22.2448 24.4658L22.2122 24.465C22.1604 24.4639 22.1084 24.4634 22.0563 24.4634C18.1085 24.4634 14.9082 27.6221 14.9082 31.5187Z" fill="white"/>
</svg>
