<svg width="1920" height="790" viewBox="0 0 1920 790" fill="none" xmlns="http://www.w3.org/2000/svg">
<g clip-path="url(#clip0_1195_7060)">
<rect width="1920" height="790" fill="#F1F6FF"/>
<g filter="url(#filter0_d_1195_7060)">
<rect x="1682" y="179" width="388" height="490" rx="40" fill="white"/>
<path d="M1821 369.247V343.141C1821 330.851 1830.96 320.888 1843.25 320.888H1925.47V369.247C1925.47 376.16 1922.71 382.787 1917.81 387.66L1913.37 392.073C1908.6 396.811 1905.86 403.213 1905.71 409.932L1905.33 427.647H1839.93L1840.29 410.582C1840.44 403.479 1837.68 396.624 1832.64 391.615L1828.66 387.66C1823.76 382.787 1821 376.16 1821 369.247Z" fill="url(#paint0_linear_1195_7060)"/>
<rect x="1821" y="288.125" width="30.907" height="67.9953" rx="15.4535" fill="url(#paint1_linear_1195_7060)"/>
<rect x="1898.88" y="292.454" width="30.907" height="58.7233" rx="15.4535" fill="url(#paint2_linear_1195_7060)"/>
<rect x="1872.92" y="277" width="30.907" height="74.1767" rx="15.4535" fill="url(#paint3_linear_1195_7060)"/>
<rect x="1846.96" y="277" width="30.907" height="70.4679" rx="15.4535" fill="url(#paint4_linear_1195_7060)"/>
<path d="M1843.25 320.27H1868.01C1873.13 320.27 1877.28 324.421 1877.28 329.542V332.098C1877.28 340.633 1870.36 347.551 1861.83 347.551H1844.81C1887.18 347.551 1881.3 403.235 1881.3 427.045H1840.48V410.059C1840.48 403.185 1837.76 396.592 1832.9 391.725L1828.58 387.394C1823.73 382.527 1821 375.933 1821 369.059V342.523C1821 330.233 1830.96 320.27 1843.25 320.27Z" fill="url(#paint5_linear_1195_7060)"/>
<path d="M1775.88 468.938H1766.24V482.883H1767.91C1771.87 482.883 1774.42 482.754 1777.45 482.18L1777.19 480.352C1774.42 480.879 1772.02 481.008 1768.49 481.031V470.789H1775.88V468.938ZM1774.68 476.344H1780.52V488.039H1782.74V466.992H1780.52V474.492H1774.68V476.344ZM1807.86 466.992H1805.61V479.391H1807.86V474.141H1810.88V472.312H1807.86V466.992ZM1792.23 477.867H1793.89C1798.44 477.867 1800.94 477.762 1803.76 477.188L1803.55 475.383C1800.9 475.922 1798.57 476.039 1794.43 476.062V470.344H1801.6V468.539H1792.23V477.867ZM1794.01 483.867C1794.01 486.457 1796.73 487.957 1801.06 487.945C1805.35 487.957 1808.02 486.457 1808.02 483.867C1808.02 481.301 1805.35 479.801 1801.06 479.789C1796.73 479.801 1794.01 481.301 1794.01 483.867ZM1796.21 483.867C1796.2 482.414 1798.03 481.582 1801.06 481.594C1804.04 481.582 1805.88 482.414 1805.89 483.867C1805.88 485.32 1804.04 486.176 1801.06 486.164C1798.03 486.176 1796.2 485.32 1796.21 483.867ZM1828.36 466.992H1826.11V479.391H1828.36V474.141H1831.38V472.312H1828.36V466.992ZM1812.73 477.867H1814.39C1818.94 477.867 1821.45 477.762 1824.26 477.188L1824.05 475.383C1821.4 475.922 1819.07 476.039 1814.93 476.062V470.344H1822.1V468.539H1812.73V477.867ZM1814.51 483.867C1814.51 486.457 1817.23 487.957 1821.56 487.945C1825.85 487.957 1828.52 486.457 1828.52 483.867C1828.52 481.301 1825.85 479.801 1821.56 479.789C1817.23 479.801 1814.51 481.301 1814.51 483.867ZM1816.71 483.867C1816.7 482.414 1818.53 481.582 1821.56 481.594C1824.54 481.582 1826.38 482.414 1826.39 483.867C1826.38 485.32 1824.54 486.176 1821.56 486.164C1818.53 486.176 1816.7 485.32 1816.71 483.867ZM1848.7 466.992H1846.5V487.992H1848.7V477.352H1852.07V475.5H1848.7V466.992ZM1832.22 472.102H1844.67V470.273H1839.63V467.273H1837.4V470.273H1832.22V472.102ZM1833.3 478.523C1833.3 481.406 1835.5 483.41 1838.53 483.422C1841.54 483.41 1843.74 481.406 1843.75 478.523C1843.74 475.664 1841.54 473.648 1838.53 473.648C1835.5 473.648 1833.3 475.664 1833.3 478.523ZM1835.43 478.523C1835.42 476.73 1836.73 475.488 1838.53 475.477C1840.31 475.488 1841.61 476.73 1841.62 478.523C1841.61 480.352 1840.31 481.57 1838.53 481.547C1836.73 481.57 1835.42 480.352 1835.43 478.523ZM1869.83 469.008H1854.86V470.812H1867.61V471.07C1867.6 473.59 1867.6 476.566 1866.79 480.633L1869.04 480.867C1869.82 476.566 1869.82 473.66 1869.83 471.07V469.008ZM1852.84 485.156H1871.99V483.305H1862.33V475.898H1860.13V483.305H1852.84V485.156ZM1886.28 473.18V470.953H1890.85V469.102H1879.34V470.953H1884.07V473.18C1884.06 476.73 1881.75 480.691 1878.56 482.227L1879.88 483.984C1882.27 482.789 1884.24 480.199 1885.2 477.211C1886.15 479.953 1888.02 482.32 1890.38 483.445L1891.64 481.711C1888.46 480.199 1886.26 476.496 1886.28 473.18ZM1893.1 487.992H1895.32V477.188H1898.7V475.312H1895.32V466.992H1893.1V487.992ZM1916.88 467.016H1914.65V482.391H1916.88V467.016ZM1899.58 477.656L1900.78 479.414C1903.24 478.465 1905.06 476.52 1905.98 474.082C1906.92 476.355 1908.71 478.137 1911.14 479.039L1912.29 477.258C1909.04 476.133 1907.09 473.32 1907.11 470.25V468.164H1904.83V470.25C1904.82 473.414 1902.88 476.438 1899.58 477.656ZM1903.15 487.547H1917.51V485.742H1905.4V480.938H1903.15V487.547ZM1936.47 466.992H1934.24V478.852H1936.47V473.789H1939.51V471.938H1936.47V466.992ZM1919.87 477.375L1920.76 479.156C1927.02 477.469 1930.67 473.684 1930.68 468.305H1920.86V470.133H1928.26C1927.85 473.414 1924.9 476.051 1919.87 477.375ZM1923.01 487.711H1936.47V479.742H1923.01V487.711ZM1925.24 485.93V481.594H1934.26V485.93H1925.24ZM1953.38 480.867V479.859H1951.22V480.867C1951.21 482.895 1949.75 485.086 1947.05 486.047L1948.18 487.688C1950.16 486.961 1951.54 485.566 1952.3 483.914C1952.94 485.625 1954.22 487.113 1956.24 487.875C1958.16 487.078 1959.41 485.543 1960.08 483.855C1960.81 485.566 1962.23 486.973 1964.3 487.688L1965.4 486.047C1962.66 485.156 1961.22 483.047 1961.23 480.867V479.859H1959.05V480.867C1959.05 482.484 1958.1 484.488 1956.18 485.719C1954.27 484.582 1953.38 482.672 1953.38 480.867ZM1946.51 473.133C1946.52 476.039 1948.89 478.055 1952.11 478.055C1955.32 478.055 1957.69 476.039 1957.69 473.133C1957.69 470.191 1955.32 468.176 1952.11 468.164C1948.89 468.176 1946.52 470.191 1946.51 473.133ZM1948.69 473.133C1948.68 471.293 1950.12 470.051 1952.11 470.062C1954.08 470.051 1955.51 471.293 1955.51 473.133C1955.51 474.961 1954.08 476.203 1952.11 476.203C1950.12 476.203 1948.68 474.961 1948.69 473.133ZM1961.28 478.969H1963.5V467.016H1961.28V478.969ZM1984.64 466.992H1982.53V487.992H1984.64V466.992ZM1966.52 481.922L1967.79 483.516C1970.75 481.781 1972.76 479.648 1974 477.211H1978.1V486.961H1980.21V467.531H1978.1V475.43H1974.77C1975.42 473.602 1975.7 471.645 1975.71 469.594H1967.51V471.422H1973.49C1973.11 475.746 1970.97 479.273 1966.52 481.922ZM1825.29 500.992H1823.07V511.609H1825.29V507.227H1828.34V505.375H1825.29V500.992ZM1809.61 510.625H1819.43V502.117H1809.61V510.625ZM1811.72 514.305H1823.09V516.227H1811.77V521.734H1826.02V519.953H1813.95V517.891H1825.29V512.57H1811.72V514.305ZM1811.79 508.844V503.898H1817.25V508.844H1811.79ZM1845.65 500.992H1843.45V521.992H1845.65V511.352H1849.03V509.5H1845.65V500.992ZM1829.18 506.102H1841.62V504.273H1836.58V501.273H1834.36V504.273H1829.18V506.102ZM1830.26 512.523C1830.26 515.406 1832.46 517.41 1835.48 517.422C1838.49 517.41 1840.7 515.406 1840.71 512.523C1840.7 509.664 1838.49 507.648 1835.48 507.648C1832.46 507.648 1830.26 509.664 1830.26 512.523ZM1832.39 512.523C1832.38 510.73 1833.69 509.488 1835.48 509.477C1837.26 509.488 1838.56 510.73 1838.58 512.523C1838.56 514.352 1837.26 515.57 1835.48 515.547C1833.69 515.57 1832.38 514.352 1832.39 512.523ZM1866.79 503.008H1851.81V504.812H1864.56V505.07C1864.55 507.59 1864.55 510.566 1863.74 514.633L1865.99 514.867C1866.78 510.566 1866.78 507.66 1866.79 505.07V503.008ZM1849.8 519.156H1868.95V517.305H1859.29V509.898H1857.09V517.305H1849.8V519.156ZM1893.33 501.016H1891.11V512.664H1893.33V501.016ZM1875.99 510.508L1877.09 512.266C1879.61 511.41 1881.49 509.605 1882.43 507.32C1883.4 509.441 1885.25 511.094 1887.71 511.891L1888.79 510.133C1885.56 509.148 1883.55 506.582 1883.56 503.805V501.766H1881.29V503.805C1881.27 506.711 1879.27 509.43 1875.99 510.508ZM1879.06 521.734H1893.68V519.93H1890.71V515.594H1893.47V513.812H1879.25V515.594H1882.06V519.93H1879.06V521.734ZM1884.26 519.93V515.594H1888.5V519.93H1884.26ZM1902.12 502.562C1898.99 502.574 1896.77 505.434 1896.8 509.922C1896.77 514.457 1898.99 517.316 1902.12 517.305C1905.05 517.316 1907.17 514.773 1907.41 510.672H1911.73V522.039H1913.93V500.992H1911.73V508.867H1907.39C1907.05 504.988 1904.98 502.574 1902.12 502.562ZM1898.91 509.922C1898.92 506.629 1900.22 504.566 1902.12 504.555C1904.01 504.566 1905.32 506.629 1905.33 509.922C1905.32 513.262 1904.01 515.312 1902.12 515.312C1900.22 515.312 1898.92 513.262 1898.91 509.922ZM1936.14 517.516H1931.55V511.984C1933.24 511.035 1934.24 509.547 1934.24 507.695C1934.24 504.391 1931 502.223 1926.49 502.211C1921.99 502.223 1918.74 504.391 1918.75 507.695C1918.74 509.582 1919.79 511.082 1921.52 512.031V517.516H1916.92V519.367H1936.14V517.516ZM1920.91 507.695C1920.91 505.434 1923.19 503.992 1926.49 503.992C1929.76 503.992 1932.08 505.434 1932.09 507.695C1932.08 509.945 1929.76 511.41 1926.49 511.422C1923.19 511.41 1920.91 509.945 1920.91 507.695ZM1923.72 517.516V512.852C1924.56 513.051 1925.5 513.156 1926.49 513.156C1927.49 513.156 1928.44 513.051 1929.3 512.852V517.516H1923.72ZM1939.82 520.164C1940.72 520.152 1941.47 519.414 1941.48 518.5C1941.47 517.586 1940.72 516.836 1939.82 516.836C1938.9 516.836 1938.14 517.586 1938.15 518.5C1938.14 519.414 1938.9 520.152 1939.82 520.164Z" fill="#160F35"/>
<path d="M1768.38 635H1777.22V633.084H1771.56V632.996L1773.83 630.746C1776.34 628.382 1777.02 627.222 1777.03 625.789C1777.02 623.653 1775.27 622.098 1772.67 622.098C1770.13 622.098 1768.32 623.662 1768.33 626.07H1770.51C1770.5 624.778 1771.34 623.961 1772.65 623.961C1773.89 623.961 1774.83 624.708 1774.83 625.895C1774.83 626.967 1774.17 627.723 1772.88 629.006L1768.38 633.348V635ZM1779.52 635H1781.9L1787.41 624.225V622.273H1778.64V624.189H1785.04V624.277L1779.52 635ZM1793.51 624.84V622.08H1791.63V624.928C1791.62 627.635 1790.6 630.438 1788.29 631.836L1789.5 633.295C1791 632.381 1792.02 630.764 1792.59 628.856C1793.11 630.588 1794.05 632.064 1795.48 632.926L1796.55 631.432C1794.4 630.078 1793.52 627.406 1793.51 624.84ZM1794.85 627.758H1797.11V635.791H1798.96V620.955H1797.11V626.141H1794.85V627.758ZM1800.38 636.564H1802.26V620.674H1800.38V636.564ZM1812.29 621.834C1809.88 621.834 1808.15 624.014 1808.16 627.441C1808.15 630.896 1809.88 633.066 1812.29 633.066C1814.68 633.066 1816.41 630.896 1816.42 627.441C1816.41 624.014 1814.68 621.834 1812.29 621.834ZM1810.04 627.441C1810.03 625.016 1810.96 623.592 1812.29 623.592C1813.64 623.592 1814.53 625.016 1814.54 627.441C1814.53 629.885 1813.64 631.3 1812.29 631.309C1810.96 631.3 1810.03 629.885 1810.04 627.441ZM1818.52 636.564H1820.47V628.426H1822.91V626.773H1820.47V620.674H1818.52V636.564ZM1838.2 626.809H1835.84V620.674H1833.89V636.529H1835.84V628.408H1838.2V626.809ZM1823.96 632.609H1825.3C1827.65 632.601 1830.19 632.46 1832.87 631.924L1832.66 630.271C1830.26 630.772 1828.01 630.957 1825.89 630.992V622.221H1823.96V632.609ZM1853.28 628.531H1838.76V630.096H1845.16V633.014H1847.14V630.096H1853.28V628.531ZM1840.3 624.277C1840.3 626.281 1842.58 627.521 1846 627.512C1849.44 627.521 1851.69 626.281 1851.69 624.277C1851.69 622.282 1849.44 621.025 1846 621.025C1842.58 621.025 1840.3 622.282 1840.3 624.277ZM1840.53 636.248H1851.68V634.648H1842.5V631.537H1840.53V636.248ZM1842.41 624.277C1842.4 623.188 1843.82 622.572 1846 622.572C1848.2 622.572 1849.61 623.188 1849.6 624.277C1849.61 625.332 1848.2 625.947 1846 625.947C1843.82 625.947 1842.4 625.332 1842.41 624.277ZM1860.02 624.488V621.957H1858.04V624.488C1858.03 627.459 1856.59 630.518 1853.99 631.73L1855.22 633.312C1857.05 632.39 1858.35 630.562 1859.05 628.364C1859.72 630.447 1860.99 632.135 1862.78 633.014L1863.96 631.449C1861.43 630.342 1860.01 627.441 1860.02 624.488ZM1862.2 627.389H1865.54V636.582H1867.48V620.674H1865.54V625.807H1862.2V627.389ZM1886.8 621.395H1874.94V622.959H1879.51C1879.32 624.453 1877.41 625.886 1874.34 626.246L1875.06 627.793C1877.91 627.45 1879.99 626.185 1880.84 624.479C1881.7 626.193 1883.8 627.45 1886.64 627.793L1887.38 626.246C1884.32 625.886 1882.37 624.462 1882.2 622.959H1886.8V621.395ZM1873.6 630.254H1880.05V633.154H1881.99V630.254H1888.12V628.672H1873.6V630.254ZM1875.36 636.248H1886.52V634.666H1877.31V631.695H1875.36V636.248ZM1902.21 620.674H1900.25V636.582H1902.21V620.674ZM1889.84 632.838H1897.57V621.975H1895.64V625.947H1891.79V621.975H1889.84V632.838ZM1891.79 631.238V627.477H1895.64V631.238H1891.79ZM1909.33 623.627V621.658H1907.45V623.627C1907.44 625.385 1906.42 627.371 1904.23 628.338L1905.29 629.832C1906.8 629.199 1907.84 627.986 1908.42 626.571C1908.99 627.802 1909.97 628.821 1911.39 629.357L1912.42 627.863C1910.34 627.072 1909.34 625.341 1909.33 623.627ZM1907.15 633.611C1907.14 635.448 1909.25 636.547 1912.6 636.547C1915.92 636.547 1918.04 635.448 1918.05 633.611C1918.04 631.783 1915.92 630.693 1912.6 630.693C1909.25 630.693 1907.14 631.783 1907.15 633.611ZM1909.1 633.611C1909.09 632.68 1910.39 632.17 1912.6 632.17C1914.77 632.17 1916.07 632.68 1916.08 633.611C1916.07 634.552 1914.77 635.062 1912.6 635.053C1910.39 635.062 1909.09 634.552 1909.1 633.611ZM1912.69 629.938H1914.52V626.299H1916.1V630.43H1917.96V620.691H1916.1V624.699H1914.52V620.99H1912.69V629.938ZM1932.24 621.641H1924.86V623.188H1930.14C1929.82 625.508 1927.65 627.38 1923.95 628.338L1924.72 629.85C1929.45 628.628 1932.25 625.763 1932.24 621.641ZM1926.58 636.354H1937.08V630.271H1926.58V636.354ZM1928.52 634.807V631.818H1935.16V634.807H1928.52ZM1935.11 629.586H1937.08V620.691H1935.11V629.586ZM1952.54 620.674H1950.61V626.369H1947.37V621.904H1945.46V625.859H1941.78V621.904H1939.82V632.732H1947.37V627.969H1950.61V636.582H1952.54V620.674ZM1941.78 631.168V627.389H1945.46V631.168H1941.78ZM1958.41 620.955H1956.47V626.264H1967.2V620.955H1965.26V622.203H1958.41V620.955ZM1954.59 628.812H1969.08V627.283H1954.59V628.812ZM1956.3 631.379H1965.35V632.398H1956.32V636.424H1967.71V634.93H1958.23V633.77H1967.27V629.938H1956.3V631.379ZM1958.41 624.787V623.627H1965.26V624.787H1958.41ZM1983.49 620.674H1981.5V636.564H1983.49V620.674ZM1969.67 631.66L1970.94 632.979C1971.99 632.161 1972.62 630.913 1973 629.498C1973.4 630.992 1974.08 632.328 1975.23 633.172C1976.38 632.328 1977.05 630.983 1977.44 629.48C1977.83 630.939 1978.5 632.223 1979.6 633.049L1980.8 631.66C1978.79 630.157 1978.39 627.406 1978.39 625.033V621.992H1976.53V625.033C1976.51 626.835 1976.3 628.979 1975.22 630.579C1974.13 628.953 1973.91 626.773 1973.91 625.033V621.992H1972.08V625.033C1972.07 627.362 1971.68 630.122 1969.67 631.66Z" fill="#BAB7C3"/>
</g>
<g filter="url(#filter1_d_1195_7060)">
<rect x="-150" y="179" width="388" height="490" rx="40" fill="white"/>
<path d="M-11 369.247V343.141C-11 330.851 -1.03698 320.888 11.253 320.888H93.4656V369.247C93.4656 376.16 90.7087 382.787 85.8059 387.66L81.3665 392.073C76.5998 396.811 73.8562 403.213 73.7128 409.932L73.3345 427.647H7.92729L8.29166 410.582C8.44333 403.479 5.67714 396.624 0.637962 391.615L-3.34038 387.66C-8.24316 382.787 -11 376.16 -11 369.247Z" fill="url(#paint6_linear_1195_7060)"/>
<rect x="-11" y="288.125" width="30.907" height="67.9953" rx="15.4535" fill="url(#paint7_linear_1195_7060)"/>
<rect x="66.8848" y="292.454" width="30.907" height="58.7233" rx="15.4535" fill="url(#paint8_linear_1195_7060)"/>
<rect x="40.9248" y="277" width="30.907" height="74.1767" rx="15.4535" fill="url(#paint9_linear_1195_7060)"/>
<rect x="14.9609" y="277" width="30.907" height="70.4679" rx="15.4535" fill="url(#paint10_linear_1195_7060)"/>
<path d="M11.253 320.27H36.0085C41.1293 320.27 45.2806 324.421 45.2806 329.542V332.098C45.2806 340.633 38.3618 347.551 29.8271 347.551H12.811C55.1761 347.551 49.3006 403.235 49.3006 427.045H8.48174V410.059C8.48174 403.185 5.75554 396.592 0.901002 391.725L-3.41925 387.394C-8.27379 382.527 -11 375.933 -11 369.059V342.523C-11 330.233 -1.037 320.27 11.253 320.27Z" fill="url(#paint11_linear_1195_7060)"/>
<path d="M-56.1225 468.938H-65.7553V482.883H-64.0912C-60.1303 482.883 -57.5756 482.754 -54.5522 482.18L-54.81 480.352C-57.5756 480.879 -59.978 481.008 -63.5053 481.031V470.789H-56.1225V468.938ZM-57.3178 476.344H-51.4819V488.039H-49.2553V466.992H-51.4819V474.492H-57.3178V476.344ZM-24.1416 466.992H-26.3916V479.391H-24.1416V474.141H-21.1181V472.312H-24.1416V466.992ZM-39.7744 477.867H-38.1103C-33.5634 477.867 -31.0556 477.762 -28.2431 477.188L-28.4541 475.383C-31.1025 475.922 -33.4345 476.039 -37.5712 476.062V470.344H-30.3994V468.539H-39.7744V477.867ZM-37.9931 483.867C-37.9931 486.457 -35.2744 487.957 -30.9384 487.945C-26.6494 487.957 -23.9775 486.457 -23.9775 483.867C-23.9775 481.301 -26.6494 479.801 -30.9384 479.789C-35.2744 479.801 -37.9931 481.301 -37.9931 483.867ZM-35.79 483.867C-35.8017 482.414 -33.9736 481.582 -30.9384 481.594C-27.9619 481.582 -26.122 482.414 -26.1103 483.867C-26.122 485.32 -27.9619 486.176 -30.9384 486.164C-33.9736 486.176 -35.8017 485.32 -35.79 483.867ZM-3.63937 466.992H-5.88937V479.391H-3.63937V474.141H-0.615936V472.312H-3.63937V466.992ZM-19.2722 477.867H-17.6081C-13.0612 477.867 -10.5534 477.762 -7.74094 477.188L-7.95187 475.383C-10.6003 475.922 -12.9323 476.039 -17.0691 476.062V470.344H-9.89719V468.539H-19.2722V477.867ZM-17.4909 483.867C-17.4909 486.457 -14.7722 487.957 -10.4362 487.945C-6.14719 487.957 -3.47531 486.457 -3.47531 483.867C-3.47531 481.301 -6.14719 479.801 -10.4362 479.789C-14.7722 479.801 -17.4909 481.301 -17.4909 483.867ZM-15.2878 483.867C-15.2995 482.414 -13.4714 481.582 -10.4362 481.594C-7.45969 481.582 -5.61984 482.414 -5.60812 483.867C-5.61984 485.32 -7.45969 486.176 -10.4362 486.164C-13.4714 486.176 -15.2995 485.32 -15.2878 483.867ZM16.6988 466.992H14.4956V487.992H16.6988V477.352H20.0738V475.5H16.6988V466.992ZM0.222191 472.102H12.6675V470.273H7.62844V467.273H5.40188V470.273H0.222191V472.102ZM1.30032 478.523C1.30032 481.406 3.50344 483.41 6.52688 483.422C9.5386 483.41 11.7417 481.406 11.7534 478.523C11.7417 475.664 9.5386 473.648 6.52688 473.648C3.50344 473.648 1.30032 475.664 1.30032 478.523ZM3.43313 478.523C3.42141 476.73 4.73391 475.488 6.52688 475.477C8.30813 475.488 9.60891 476.73 9.62063 478.523C9.60891 480.352 8.30813 481.57 6.52688 481.547C4.73391 481.57 3.42141 480.352 3.43313 478.523ZM37.8338 469.008H22.8572V470.812H35.6072V471.07C35.5955 473.59 35.5955 476.566 34.7869 480.633L37.0369 480.867C37.822 476.566 37.822 473.66 37.8338 471.07V469.008ZM20.8416 485.156H39.99V483.305H30.3338V475.898H28.1306V483.305H20.8416V485.156ZM54.2756 473.18V470.953H58.8459V469.102H47.3381V470.953H52.0725V473.18C52.0608 476.73 49.7522 480.691 46.5647 482.227L47.8772 483.984C50.2678 482.789 52.2366 480.199 53.1975 477.211C54.1467 479.953 56.0217 482.32 58.3772 483.445L59.6428 481.711C56.4553 480.199 54.2639 476.496 54.2756 473.18ZM61.0959 487.992H63.3225V477.188H66.6975V475.312H63.3225V466.992H61.0959V487.992ZM84.8794 467.016H82.6528V482.391H84.8794V467.016ZM67.5825 477.656L68.7778 479.414C71.2388 478.465 73.0552 476.52 73.9809 474.082C74.9184 476.355 76.7114 478.137 79.1372 479.039L80.2856 477.258C77.0395 476.133 75.0942 473.32 75.1059 470.25V468.164H72.8325V470.25C72.8208 473.414 70.8755 476.438 67.5825 477.656ZM71.145 487.547H85.5122V485.742H73.395V480.938H71.145V487.547ZM104.467 466.992H102.241V478.852H104.467V473.789H107.514V471.938H104.467V466.992ZM87.8737 477.375L88.7644 479.156C95.0222 477.469 98.6667 473.684 98.6784 468.305H88.8581V470.133H96.2644C95.8542 473.414 92.9011 476.051 87.8737 477.375ZM91.0144 487.711H104.467V479.742H91.0144V487.711ZM93.2409 485.93V481.594H102.264V485.93H93.2409ZM121.378 480.867V479.859H119.222V480.867C119.21 482.895 117.745 485.086 115.05 486.047L116.175 487.688C118.155 486.961 119.538 485.566 120.3 483.914C120.945 485.625 122.222 487.113 124.238 487.875C126.159 487.078 127.413 485.543 128.081 483.855C128.808 485.566 130.226 486.973 132.3 487.688L133.402 486.047C130.659 485.156 129.218 483.047 129.23 480.867V479.859H127.05V480.867C127.05 482.484 126.101 484.488 124.179 485.719C122.269 484.582 121.378 482.672 121.378 480.867ZM114.511 473.133C114.523 476.039 116.89 478.055 120.113 478.055C123.323 478.055 125.691 476.039 125.691 473.133C125.691 470.191 123.323 468.176 120.113 468.164C116.89 468.176 114.523 470.191 114.511 473.133ZM116.691 473.133C116.679 471.293 118.12 470.051 120.113 470.062C122.081 470.051 123.511 471.293 123.511 473.133C123.511 474.961 122.081 476.203 120.113 476.203C118.12 476.203 116.679 474.961 116.691 473.133ZM129.277 478.969H131.503V467.016H129.277V478.969ZM152.638 466.992H150.529V487.992H152.638V466.992ZM134.521 481.922L135.787 483.516C138.751 481.781 140.755 479.648 141.997 477.211H146.099V486.961H148.208V467.531H146.099V475.43H142.771C143.415 473.602 143.697 471.645 143.708 469.594H135.505V471.422H141.494C141.107 475.746 138.974 479.273 134.521 481.922ZM-6.70688 500.992H-8.93344V511.609H-6.70688V507.227H-3.66V505.375H-6.70688V500.992ZM-22.3866 510.625H-12.5663V502.117H-22.3866V510.625ZM-20.2772 514.305H-8.91V516.227H-20.2303V521.734H-5.98032V519.953H-18.0506V517.891H-6.70688V512.57H-20.2772V514.305ZM-20.2069 508.844V503.898H-14.7459V508.844H-20.2069ZM13.6547 500.992H11.4516V521.992H13.6547V511.352H17.0297V509.5H13.6547V500.992ZM-2.82188 506.102H9.62344V504.273H4.58437V501.273H2.35781V504.273H-2.82188V506.102ZM-1.74375 512.523C-1.74375 515.406 0.459373 517.41 3.48281 517.422C6.49453 517.41 8.69765 515.406 8.70937 512.523C8.69765 509.664 6.49453 507.648 3.48281 507.648C0.459373 507.648 -1.74375 509.664 -1.74375 512.523ZM0.389061 512.523C0.377342 510.73 1.68984 509.488 3.48281 509.477C5.26406 509.488 6.56484 510.73 6.57656 512.523C6.56484 514.352 5.26406 515.57 3.48281 515.547C1.68984 515.57 0.377342 514.352 0.389061 512.523ZM34.7897 503.008H19.8131V504.812H32.5631V505.07C32.5514 507.59 32.5514 510.566 31.7428 514.633L33.9928 514.867C34.778 510.566 34.778 507.66 34.7897 505.07V503.008ZM17.7975 519.156H36.9459V517.305H27.2897V509.898H25.0866V517.305H17.7975V519.156ZM61.3331 501.016H59.1066V512.664H61.3331V501.016ZM43.9894 510.508L45.0909 512.266C47.6105 511.41 49.4855 509.605 50.4347 507.32C51.3956 509.441 53.2472 511.094 55.7081 511.891L56.7862 510.133C53.5636 509.148 51.548 506.582 51.5597 503.805V501.766H49.2862V503.805C49.2745 506.711 47.2706 509.43 43.9894 510.508ZM47.0597 521.734H61.6847V519.93H58.7081V515.594H61.4737V513.812H47.2472V515.594H50.0597V519.93H47.0597V521.734ZM52.2628 519.93V515.594H56.505V519.93H52.2628ZM70.1166 502.562C66.9877 502.574 64.7728 505.434 64.7962 509.922C64.7728 514.457 66.9877 517.316 70.1166 517.305C73.0462 517.316 75.1673 514.773 75.4134 510.672H79.7259V522.039H81.9291V500.992H79.7259V508.867H75.39C75.0502 504.988 72.9759 502.574 70.1166 502.562ZM66.9056 509.922C66.9173 506.629 68.2181 504.566 70.1166 504.555C72.015 504.566 73.3158 506.629 73.3275 509.922C73.3158 513.262 72.015 515.312 70.1166 515.312C68.2181 515.312 66.9173 513.262 66.9056 509.922ZM104.142 517.516H99.5484V511.984C101.236 511.035 102.244 509.547 102.244 507.695C102.244 504.391 98.9977 502.223 94.4859 502.211C89.9859 502.223 86.7398 504.391 86.7516 507.695C86.7398 509.582 87.7945 511.082 89.5172 512.031V517.516H84.9234V519.367H104.142V517.516ZM88.9078 507.695C88.9078 505.434 91.193 503.992 94.4859 503.992C97.7555 503.992 100.076 505.434 100.087 507.695C100.076 509.945 97.7555 511.41 94.4859 511.422C91.193 511.41 88.9078 509.945 88.9078 507.695ZM91.7203 517.516V512.852C92.5641 513.051 93.5016 513.156 94.4859 513.156C95.4937 513.156 96.443 513.051 97.2984 512.852V517.516H91.7203ZM107.816 520.164C108.719 520.152 109.469 519.414 109.48 518.5C109.469 517.586 108.719 516.836 107.816 516.836C106.902 516.836 106.14 517.586 106.152 518.5C106.14 519.414 106.902 520.152 107.816 520.164Z" fill="#160F35"/>
<path d="M-63.618 635H-54.7762V633.084H-60.4364V632.996L-58.1688 630.746C-55.6639 628.382 -54.9784 627.222 -54.9696 625.789C-54.9784 623.653 -56.7274 622.098 -59.329 622.098C-61.869 622.098 -63.6796 623.662 -63.6708 626.07H-61.4911C-61.4999 624.778 -60.6561 623.961 -59.3466 623.961C-58.1073 623.961 -57.1669 624.708 -57.1669 625.895C-57.1669 626.967 -57.8348 627.723 -59.118 629.006L-63.618 633.348V635ZM-52.4777 635H-50.1047L-44.5852 624.225V622.273H-53.3566V624.189H-46.9582V624.277L-52.4777 635ZM-38.4898 624.84V622.08H-40.3706V624.928C-40.3794 627.635 -41.3989 630.438 -43.7105 631.836L-42.4976 633.295C-41.0034 632.381 -39.9839 630.764 -39.4126 628.856C-38.8853 630.588 -37.9536 632.064 -36.521 632.926L-35.4487 631.432C-37.6021 630.078 -38.481 627.406 -38.4898 624.84ZM-37.1538 627.758H-34.8862V635.791H-33.0405V620.955H-34.8862V626.141H-37.1538V627.758ZM-31.6167 636.564H-29.7359V620.674H-31.6167V636.564ZM-19.7072 621.834C-22.1242 621.834 -23.8468 624.014 -23.838 627.441C-23.8468 630.896 -22.1242 633.066 -19.7072 633.066C-17.3166 633.066 -15.5939 630.896 -15.5763 627.441C-15.5939 624.014 -17.3166 621.834 -19.7072 621.834ZM-21.9572 627.441C-21.966 625.016 -21.0431 623.592 -19.7072 623.592C-18.3625 623.592 -17.466 625.016 -17.4572 627.441C-17.466 629.885 -18.3625 631.3 -19.7072 631.309C-21.0431 631.3 -21.966 629.885 -21.9572 627.441ZM-13.4845 636.564H-11.5334V628.426H-9.09V626.773H-11.5334V620.674H-13.4845V636.564ZM6.19875 626.809H3.84328V620.674H1.89211V636.529H3.84328V628.408H6.19875V626.809ZM-8.03953 632.609H-6.70359C-4.34812 632.601 -1.80808 632.46 0.872581 631.924L0.661644 630.271C-1.73777 630.772 -3.98777 630.957 -6.10593 630.992V622.221H-8.03953V632.609ZM21.2766 628.531H6.75703V630.096H13.1555V633.014H15.1418V630.096H21.2766V628.531ZM8.30391 624.277C8.29512 626.281 10.5803 627.521 13.9992 627.512C17.4357 627.521 19.6945 626.281 19.6945 624.277C19.6945 622.282 17.4357 621.025 13.9992 621.025C10.5803 621.025 8.29512 622.282 8.30391 624.277ZM8.53242 636.248H19.677V634.648H10.5012V631.537H8.53242V636.248ZM10.4133 624.277C10.3957 623.188 11.8195 622.572 13.9992 622.572C16.1965 622.572 17.6115 623.188 17.6027 624.277C17.6115 625.332 16.1965 625.947 13.9992 625.947C11.8195 625.947 10.3957 625.332 10.4133 624.277ZM28.0223 624.488V621.957H26.036V624.488C26.0272 627.459 24.5858 630.518 21.993 631.73L23.2235 633.312C25.0516 632.39 26.3524 630.562 27.0468 628.364C27.7235 630.447 28.9891 632.135 30.7821 633.014L31.9598 631.449C29.4286 630.342 28.0136 627.441 28.0223 624.488ZM30.202 627.389H33.5419V636.582H35.4755V620.674H33.5419V625.807H30.202V627.389ZM54.803 621.395H42.9377V622.959H47.508C47.3235 624.453 45.4075 625.886 42.3401 626.246L43.0608 627.793C45.9084 627.45 47.9914 626.185 48.844 624.479C49.6965 626.193 51.7971 627.45 54.6448 627.793L55.383 626.246C52.3157 625.886 50.3733 624.462 50.1975 622.959H54.803V621.395ZM41.6018 630.254H48.053V633.154H49.9866V630.254H56.1213V628.672H41.6018V630.254ZM43.3596 636.248H54.5217V634.666H45.3108V631.695H43.3596V636.248ZM70.2148 620.674H68.246V636.582H70.2148V620.674ZM57.8398 632.838H65.5741V621.975H63.6405V625.947H59.7909V621.975H57.8398V632.838ZM59.7909 631.238V627.477H63.6405V631.238H59.7909ZM77.3297 623.627V621.658H75.4488V623.627C75.44 625.385 74.4205 627.371 72.232 628.338L73.2867 629.832C74.7984 629.199 75.8356 627.986 76.4156 626.571C76.9869 627.802 77.9713 628.821 79.3863 629.357L80.4234 627.863C78.3404 627.072 77.3385 625.341 77.3297 623.627ZM75.15 633.611C75.1412 635.448 77.2506 636.547 80.5992 636.547C83.9215 636.547 86.0397 635.448 86.0484 633.611C86.0397 631.783 83.9215 630.693 80.5992 630.693C77.2506 630.693 75.1412 631.783 75.15 633.611ZM77.1012 633.611C77.0924 632.68 78.3932 632.17 80.5992 632.17C82.7701 632.17 84.0709 632.68 84.0797 633.611C84.0709 634.552 82.7701 635.062 80.5992 635.053C78.3932 635.062 77.0924 634.552 77.1012 633.611ZM80.6871 629.938H82.5152V626.299H84.0973V630.43H85.9606V620.691H84.0973V624.699H82.5152V620.99H80.6871V629.938ZM100.243 621.641H92.8603V623.188H98.1425C97.8174 625.508 95.6465 627.38 91.9463 628.338L92.7197 629.85C97.4482 628.628 100.252 625.763 100.243 621.641ZM94.583 636.354H105.077V630.271H94.583V636.354ZM96.5166 634.807V631.818H103.161V634.807H96.5166ZM103.108 629.586H105.077V620.691H103.108V629.586ZM120.542 620.674H118.608V626.369H115.374V621.904H113.458V625.859H109.784V621.904H107.815V632.732H115.374V627.969H118.608V636.582H120.542V620.674ZM109.784 631.168V627.389H113.458V631.168H109.784ZM126.409 620.955H124.475V626.264H135.198V620.955H133.264V622.203H126.409V620.955ZM122.594 628.812H137.078V627.283H122.594V628.812ZM124.299 631.379H133.352V632.398H124.317V636.424H135.707V634.93H126.233V633.77H135.268V629.938H124.299V631.379ZM126.409 624.787V623.627H133.264V624.787H126.409ZM151.488 620.674H149.502V636.564H151.488V620.674ZM137.672 631.66L138.938 632.979C139.992 632.161 140.625 630.913 141.003 629.498C141.398 630.992 142.075 632.328 143.227 633.172C144.378 632.328 145.055 630.983 145.441 629.48C145.828 630.939 146.496 632.223 147.604 633.049L148.799 631.66C146.795 630.157 146.391 627.406 146.391 625.033V621.992H144.527V625.033C144.51 626.835 144.299 628.979 143.218 630.579C142.128 628.953 141.908 626.773 141.908 625.033V621.992H140.08V625.033C140.071 627.362 139.676 630.122 137.672 631.66Z" fill="#BAB7C3"/>
</g>
<g filter="url(#filter2_b_1195_7060)">
<rect width="1920" height="790" fill="#F1F6FF" fill-opacity="0.7"/>
</g>
</g>
<defs>
<filter id="filter0_d_1195_7060" x="1666" y="163" width="428" height="530" filterUnits="userSpaceOnUse" color-interpolation-filters="sRGB">
<feFlood flood-opacity="0" result="BackgroundImageFix"/>
<feColorMatrix in="SourceAlpha" type="matrix" values="0 0 0 0 0 0 0 0 0 0 0 0 0 0 0 0 0 0 127 0" result="hardAlpha"/>
<feOffset dx="4" dy="4"/>
<feGaussianBlur stdDeviation="10"/>
<feComposite in2="hardAlpha" operator="out"/>
<feColorMatrix type="matrix" values="0 0 0 0 0.0862745 0 0 0 0 0.0588235 0 0 0 0 0.207843 0 0 0 0.05 0"/>
<feBlend mode="normal" in2="BackgroundImageFix" result="effect1_dropShadow_1195_7060"/>
<feBlend mode="normal" in="SourceGraphic" in2="effect1_dropShadow_1195_7060" result="shape"/>
</filter>
<filter id="filter1_d_1195_7060" x="-166" y="163" width="428" height="530" filterUnits="userSpaceOnUse" color-interpolation-filters="sRGB">
<feFlood flood-opacity="0" result="BackgroundImageFix"/>
<feColorMatrix in="SourceAlpha" type="matrix" values="0 0 0 0 0 0 0 0 0 0 0 0 0 0 0 0 0 0 127 0" result="hardAlpha"/>
<feOffset dx="4" dy="4"/>
<feGaussianBlur stdDeviation="10"/>
<feComposite in2="hardAlpha" operator="out"/>
<feColorMatrix type="matrix" values="0 0 0 0 0.0862745 0 0 0 0 0.0588235 0 0 0 0 0.207843 0 0 0 0.05 0"/>
<feBlend mode="normal" in2="BackgroundImageFix" result="effect1_dropShadow_1195_7060"/>
<feBlend mode="normal" in="SourceGraphic" in2="effect1_dropShadow_1195_7060" result="shape"/>
</filter>
<filter id="filter2_b_1195_7060" x="-35" y="-35" width="1990" height="860" filterUnits="userSpaceOnUse" color-interpolation-filters="sRGB">
<feFlood flood-opacity="0" result="BackgroundImageFix"/>
<feGaussianBlur in="BackgroundImage" stdDeviation="17.5"/>
<feComposite in2="SourceAlpha" operator="in" result="effect1_backgroundBlur_1195_7060"/>
<feBlend mode="normal" in="SourceGraphic" in2="effect1_backgroundBlur_1195_7060" result="shape"/>
</filter>
<linearGradient id="paint0_linear_1195_7060" x1="1872.76" y1="325.327" x2="1886.61" y2="428.249" gradientUnits="userSpaceOnUse">
<stop stop-color="#4182FF"/>
<stop offset="0.727219" stop-color="#D8D9FF"/>
<stop offset="1" stop-color="white"/>
</linearGradient>
<linearGradient id="paint1_linear_1195_7060" x1="1864.89" y1="303.156" x2="1844.64" y2="272.377" gradientUnits="userSpaceOnUse">
<stop stop-color="#84AEFF"/>
<stop offset="1" stop-color="#D8D9FF"/>
</linearGradient>
<linearGradient id="paint2_linear_1195_7060" x1="1903.52" y1="349.013" x2="1938.34" y2="337.45" gradientUnits="userSpaceOnUse">
<stop stop-color="#84AEFF"/>
<stop offset="1" stop-color="#D8D9FF"/>
</linearGradient>
<linearGradient id="paint3_linear_1195_7060" x1="1884.36" y1="353.031" x2="1931.68" y2="324.506" gradientUnits="userSpaceOnUse">
<stop stop-color="#84AEFF"/>
<stop offset="1" stop-color="#D8D9FF"/>
</linearGradient>
<linearGradient id="paint4_linear_1195_7060" x1="1892.7" y1="355.195" x2="1908.75" y2="294.517" gradientUnits="userSpaceOnUse">
<stop stop-color="#84AEFF"/>
<stop offset="1" stop-color="#D8D9FF"/>
</linearGradient>
<linearGradient id="paint5_linear_1195_7060" x1="1831.82" y1="323.36" x2="1839.06" y2="428.851" gradientUnits="userSpaceOnUse">
<stop stop-color="#A7C5FF"/>
<stop offset="0.719545" stop-color="#D8D9FF"/>
<stop offset="1" stop-color="white"/>
</linearGradient>
<linearGradient id="paint6_linear_1195_7060" x1="40.7619" y1="325.327" x2="54.6052" y2="428.249" gradientUnits="userSpaceOnUse">
<stop stop-color="#4182FF"/>
<stop offset="0.727219" stop-color="#D8D9FF"/>
<stop offset="1" stop-color="white"/>
</linearGradient>
<linearGradient id="paint7_linear_1195_7060" x1="32.8879" y1="303.156" x2="12.6369" y2="272.377" gradientUnits="userSpaceOnUse">
<stop stop-color="#84AEFF"/>
<stop offset="1" stop-color="#D8D9FF"/>
</linearGradient>
<linearGradient id="paint8_linear_1195_7060" x1="71.5208" y1="349.013" x2="106.339" y2="337.45" gradientUnits="userSpaceOnUse">
<stop stop-color="#84AEFF"/>
<stop offset="1" stop-color="#D8D9FF"/>
</linearGradient>
<linearGradient id="paint9_linear_1195_7060" x1="52.3604" y1="353.031" x2="99.6812" y2="324.506" gradientUnits="userSpaceOnUse">
<stop stop-color="#84AEFF"/>
<stop offset="1" stop-color="#D8D9FF"/>
</linearGradient>
<linearGradient id="paint10_linear_1195_7060" x1="60.7033" y1="355.195" x2="76.7543" y2="294.517" gradientUnits="userSpaceOnUse">
<stop stop-color="#84AEFF"/>
<stop offset="1" stop-color="#D8D9FF"/>
</linearGradient>
<linearGradient id="paint11_linear_1195_7060" x1="-0.18256" y1="323.36" x2="7.05647" y2="428.851" gradientUnits="userSpaceOnUse">
<stop stop-color="#A7C5FF"/>
<stop offset="0.719545" stop-color="#D8D9FF"/>
<stop offset="1" stop-color="white"/>
</linearGradient>
<clipPath id="clip0_1195_7060">
<rect width="1920" height="790" fill="white"/>
</clipPath>
</defs>
</svg>
