<svg width="165" height="70" viewBox="0 0 165 70" fill="none" xmlns="http://www.w3.org/2000/svg">
<rect y="8" width="165" height="62" rx="6" fill="#160F35" fill-opacity="0.7"/>
<path d="M21.1914 28.2725H13.5156V24.5371H21.0889V23.2188H11.9043V29.5762H21.1914V28.2725ZM10.4395 33.6191H22.5391V32.2715H10.4395V33.6191ZM28.6439 23.4092H23.6342V24.7275H27.0766V27.0273H23.6488V32.2861H24.557C26.1977 32.2788 27.6479 32.2349 29.435 31.9346L29.3178 30.6162C27.8383 30.8579 26.5565 30.9092 25.2162 30.9238V28.3457H28.6439V23.4092ZM30.1088 34.6299H31.6029V28.4629H33.0971V35.3037H34.6498V22.0615H33.0971V27.1445H31.6029V22.3105H30.1088V34.6299ZM46.5994 23.3506H37.3416V24.6689H44.9734V24.8447C44.9734 26.5659 44.9734 28.4849 44.4607 31.085L46.116 31.2314C46.5994 28.4409 46.5994 26.6172 46.5994 24.8447V23.3506ZM36.0672 33.4873H48.1375V32.1543H36.0672V33.4873ZM55.341 24.1709H52.924V22.4424H51.3127V24.1709H48.8518V25.4746H55.341V24.1709ZM49.2326 29.2539C49.218 31.0923 50.4411 32.374 52.1184 32.374C53.8029 32.374 55.0041 31.0923 55.0041 29.2539C55.0041 27.4521 53.8029 26.1704 52.1184 26.1777C50.4411 26.1704 49.218 27.4521 49.2326 29.2539ZM50.6682 29.2539C50.6608 28.2139 51.2614 27.5254 52.1184 27.5254C52.968 27.5254 53.5686 28.2139 53.5686 29.2539C53.5686 30.3232 52.968 30.9897 52.1184 30.9824C51.2614 30.9897 50.6608 30.3232 50.6682 29.2539ZM55.8977 34.7031H57.4211V28.8291H58.7102V35.3037H60.2629V22.0615H58.7102V27.5107H57.4211V22.3398H55.8977V34.7031ZM66.5875 25.2402V23.1309H64.9322V25.2402C64.9249 27.7158 63.7237 30.2646 61.5631 31.2754L62.5885 32.5938C64.1119 31.8247 65.1959 30.3013 65.7745 28.4702C66.3385 30.2061 67.3932 31.6123 68.8873 32.3447L69.8688 31.041C67.7594 30.1182 66.5802 27.7012 66.5875 25.2402ZM68.4039 27.6572H71.1871V35.3184H72.7984V22.0615H71.1871V26.3389H68.4039V27.6572ZM88.2895 22.0615H86.6781V35.3037H88.2895V28.6826H90.3256V27.335H88.2895V22.0615ZM77.8451 25.4014H85.6527V24.0977H82.6059V22.252H80.9799V24.0977H77.8451V25.4014ZM78.4604 29.3857C78.4457 31.2095 79.8666 32.4912 81.8002 32.4912C83.7045 32.4912 85.1181 31.2095 85.1254 29.3857C85.1181 27.5547 83.7045 26.2583 81.8002 26.2656C79.8666 26.2583 78.4457 27.5547 78.4604 29.3857ZM80.0131 29.3857C80.0058 28.3091 80.7602 27.5986 81.8002 27.5986C82.8183 27.5986 83.558 28.3091 83.5727 29.3857C83.558 30.4624 82.8183 31.1509 81.8002 31.1436C80.7602 31.1509 80.0058 30.4624 80.0131 29.3857ZM101.748 22.0615H100.107V35.3184H101.748V22.0615ZM91.157 27.7012C91.1497 30.5796 92.6072 32.3887 94.6141 32.3887C96.5989 32.3887 98.0638 30.5796 98.0711 27.7012C98.0638 24.8447 96.5989 23.0283 94.6141 23.0283C92.6072 23.0283 91.1497 24.8447 91.157 27.7012ZM92.7244 27.7012C92.7244 25.6797 93.4935 24.4932 94.6141 24.4932C95.7273 24.4932 96.4891 25.6797 96.4891 27.7012C96.4891 29.7373 95.7273 30.9165 94.6141 30.9238C93.4935 30.9165 92.7244 29.7373 92.7244 27.7012ZM113.917 22.0615H112.306V35.3184H113.917V28.5068H115.953V27.1445H113.917V22.0615ZM104.073 24.5371H108.541V26.9102H104.103V32.1982H105.187C107.596 32.1982 109.398 32.1104 111.442 31.7441L111.295 30.4258C109.449 30.748 107.816 30.8359 105.714 30.8506V28.2139H110.167V23.2188H104.073V24.5371ZM127.376 22.0615H125.735V35.3184H127.376V22.0615ZM116.785 27.7012C116.777 30.5796 118.235 32.3887 120.242 32.3887C122.227 32.3887 123.692 30.5796 123.699 27.7012C123.692 24.8447 122.227 23.0283 120.242 23.0283C118.235 23.0283 116.777 24.8447 116.785 27.7012ZM118.352 27.7012C118.352 25.6797 119.121 24.4932 120.242 24.4932C121.355 24.4932 122.117 25.6797 122.117 27.7012C122.117 29.7373 121.355 30.9165 120.242 30.9238C119.121 30.9165 118.352 29.7373 118.352 27.7012ZM139.94 29.0049H132.309V27.291H139.516V26.0166H132.309V24.4199H139.823V23.1016H130.653V30.2939H139.94V29.0049ZM129.174 33.6924H141.273V32.3594H129.174V33.6924ZM154.073 28.0674H141.973V29.2979H154.073V28.0674ZM143.379 31.2314H150.996V32.0518H143.394V35.1572H153.003V34.0293H145.02V33.1064H152.608V30.0889H143.379V31.2314ZM143.467 23.4824H150.953V24.2881H143.511V27.3203H152.813V26.207H145.122V25.3428H152.579V22.3545H143.467V23.4824ZM22.5391 53.4619H19.3457V50.7373H21.4404V49.4189H19.5508V45.4932H21.4844V44.1895H11.4355V45.4932H13.3398V49.4189H11.4795V50.7373H13.5742V53.4619H10.4395V54.7803H22.5391V53.4619ZM14.9658 49.4189V45.4932H17.9395V49.4189H14.9658ZM15.2002 53.4619V50.7373H17.7197V53.4619H15.2002ZM28.2631 46.2402V44.1309H26.6078V46.2402C26.6005 48.7964 25.3114 51.3232 23.1068 52.2754L24.1029 53.6377C25.7069 52.8833 26.8495 51.3599 27.4574 49.4995C28.0727 51.228 29.1859 52.627 30.7094 53.3301L31.6762 52.0264C29.5302 51.1035 28.2484 48.6719 28.2631 46.2402ZM32.6283 56.3184H34.2689V43.0615H32.6283V56.3184ZM42.5271 45.1709H40.1102V43.4424H38.4988V45.1709H36.0379V46.4746H42.5271V45.1709ZM36.4188 50.2539C36.4041 52.0923 37.6272 53.374 39.3045 53.374C40.9891 53.374 42.1902 52.0923 42.1902 50.2539C42.1902 48.4521 40.9891 47.1704 39.3045 47.1777C37.6272 47.1704 36.4041 48.4521 36.4188 50.2539ZM37.8543 50.2539C37.847 49.2139 38.4476 48.5254 39.3045 48.5254C40.1541 48.5254 40.7547 49.2139 40.7547 50.2539C40.7547 51.3232 40.1541 51.9897 39.3045 51.9824C38.4476 51.9897 37.847 51.3232 37.8543 50.2539ZM43.0838 55.7031H44.6072V49.8291H45.8963V56.3037H47.449V43.0615H45.8963V48.5107H44.6072V43.3398H43.0838V55.7031ZM60.9807 53.374H55.7072V50.7959H59.6037V43.9404H57.9777V46.1084H51.84V43.9404H50.2141V50.7959H54.0959V53.374H48.8811V54.707H60.9807V53.374ZM51.84 49.4775V47.4121H57.9777V49.4775H51.84ZM65.8258 46.5332V44.2334H64.2584V46.6064C64.2511 48.8623 63.4015 51.1987 61.4752 52.3633L62.4859 53.5791C63.7311 52.8174 64.5807 51.4697 65.0567 49.8804C65.4962 51.3232 66.2726 52.5537 67.4664 53.2715L68.36 52.0264C66.5655 50.8984 65.8331 48.6719 65.8258 46.5332ZM66.9391 48.9648H68.8287V55.6592H70.3668V43.2959H68.8287V47.6172H66.9391V48.9648ZM71.5533 56.3037H73.1207V43.0615H71.5533V56.3037ZM86.6084 53.3594H83.8252V49.9756C84.8506 49.3677 85.4731 48.4375 85.4658 47.2803C85.4731 45.1709 83.3931 43.7793 80.5293 43.7793C77.6802 43.7793 75.6147 45.1709 75.6221 47.2803C75.6147 48.4521 76.252 49.4043 77.3066 50.0122V53.3594H74.5088V54.6924H86.6084V53.3594ZM77.2188 47.2803C77.2114 45.9033 78.5518 45.061 80.5293 45.0684C82.4995 45.061 83.8691 45.9033 83.8691 47.2803C83.8691 48.6353 82.4995 49.4995 80.5293 49.4922C78.5518 49.4995 77.2114 48.6353 77.2188 47.2803ZM78.918 53.3594V50.6055C79.416 50.708 79.958 50.7666 80.5293 50.7666C81.1152 50.7666 81.6646 50.708 82.1699 50.5981V53.3594H78.918ZM88.934 55.1172C89.5419 55.1172 90.0619 54.6045 90.0619 53.9746C90.0619 53.3594 89.5419 52.854 88.934 52.8467C88.3041 52.854 87.7841 53.3594 87.7914 53.9746C87.7841 54.6045 88.3041 55.1172 88.934 55.1172Z" fill="white"/>
<path d="M139.505 0.672146C140.301 -0.224049 141.699 -0.224049 142.495 0.672146L149 8H133L139.505 0.672146Z" fill="#160F35" fill-opacity="0.7"/>
</svg>
