<svg width="32" height="32" viewBox="0 0 32 32" fill="none" xmlns="http://www.w3.org/2000/svg">
<path d="M0 12.3778C0 8.12094 3.04649 4 8.22098 4C14.9775 4 16.3931 9.30384 16.3931 10.7567C16.3931 11.885 18.0841 12.3793 19.3356 12.734C19.6366 12.8194 19.7268 13.2379 19.5118 13.4652C18.7229 14.299 18.4803 15.0099 18.9409 15.5894C18.9623 15.6163 18.982 15.6452 18.993 15.6777C19.0524 15.8536 19.0201 16.0591 18.8769 16.1774C16.4753 18.1621 17.7516 18.9002 18.9105 19.0561C19.0637 19.0767 19.1953 19.1825 19.2296 19.3332C19.8083 21.8799 18.4824 22.2524 15.9104 23.3045C14.1533 24.0233 13.707 26.1135 13.6964 27.5653C13.6933 27.9954 13.3598 28.3719 12.9298 28.3719H6.58626C6.11583 28.3719 5.77055 27.9259 5.85874 27.4638C6.15627 25.9049 6.3649 23.5596 5.65501 22.2186C4.56914 20.1676 0 17.5659 0 12.3778Z" fill="#4E8AFF"/>
<path d="M22.2903 20.6088C22.2903 21.3942 23.1808 21.779 23.6466 21.1467C24.7135 19.6985 25.345 17.9026 25.345 15.9575C25.345 14.0123 24.7135 12.2164 23.6466 10.7682C23.1808 10.1359 22.2903 10.5207 22.2903 11.3061V20.6088Z" fill="#A7C5FF"/>
<path d="M27.3031 23.0316C27.3031 24.2486 28.6786 24.8533 29.4082 23.8793C31.0359 21.7065 32 19.0079 32 16.084C32 13.1602 31.0359 10.4616 29.4082 8.28878C28.6786 7.31473 27.3031 7.91944 27.3031 9.13647V23.0316Z" fill="#A7C5FF"/>
</svg>
