<svg width="32" height="32" viewBox="0 0 32 32" fill="none" xmlns="http://www.w3.org/2000/svg">
<path d="M16 32C7.1632 32 0 24.8368 0 16C0 7.1648 7.1632 0 16 0C24.8368 0 32 7.1648 32 16C32 24.8368 24.8368 32 16 32ZM16 8C15.5757 8 15.1687 8.16857 14.8686 8.46863C14.5686 8.76869 14.4 9.17565 14.4 9.6V17.6C14.4 18.0243 14.5686 18.4313 14.8686 18.7314C15.1687 19.0314 15.5757 19.2 16 19.2C16.4243 19.2 16.8313 19.0314 17.1314 18.7314C17.4314 18.4313 17.6 18.0243 17.6 17.6V9.6C17.6 9.17565 17.4314 8.76869 17.1314 8.46863C16.8313 8.16857 16.4243 8 16 8ZM16 24C16.4243 24 16.8313 23.8314 17.1314 23.5314C17.4314 23.2313 17.6 22.8243 17.6 22.4C17.6 21.9757 17.4314 21.5687 17.1314 21.2686C16.8313 20.9686 16.4243 20.8 16 20.8C15.5757 20.8 15.1687 20.9686 14.8686 21.2686C14.5686 21.5687 14.4 21.9757 14.4 22.4C14.4 22.8243 14.5686 23.2313 14.8686 23.5314C15.1687 23.8314 15.5757 24 16 24Z" fill="#E5EEFF"/>
</svg>
