<svg width="194" height="60" viewBox="0 0 194 60" fill="none" xmlns="http://www.w3.org/2000/svg">
<path fill-rule="evenodd" clip-rule="evenodd" d="M20.1751 5.12218C32.2539 3.00867 43.7723 11.0122 45.9021 22.9985C48.032 34.9849 39.9667 46.4151 27.8879 48.5286L20.0624 49.8979C15.054 50.7743 10.7314 53.8908 8.34387 58.3469C7.79064 59.3795 6.23419 59.1349 6.02955 57.9832L0.257473 25.4987C-1.35017 16.4512 4.73769 7.82337 13.8551 6.22804L20.1751 5.12218ZM21.5882 17.3678C26.6223 16.487 31.4228 19.8226 32.3104 24.8181C33.1854 29.7426 29.9299 34.4568 24.9862 35.4243L21.4136 36.1234C19.4725 36.5033 17.7919 37.6979 16.8049 39.3995C16.5657 39.8119 15.9379 39.7027 15.8543 39.2341L14.4256 31.2281C14.2097 30.0132 14.0008 28.8341 13.7949 27.6703C12.9475 22.8817 16.1714 18.3156 20.9963 17.4714L21.5882 17.3678Z" fill="#4E8AFF"/>
<path d="M90.0459 10.4286H85.2995V27.5082H90.0459V10.4286ZM63.5482 26.3497H66.5007C74.1248 26.387 78.348 26.1441 82.9823 25.1537L82.4591 21.5285C78.348 22.3507 74.592 22.5936 68.332 22.6123V15.9973H79.7682V12.2599H63.5482V26.3497ZM67.2855 44.2515H90.9428V40.5515H72.0319V38.1223H90.0459V28.8537H67.2855V32.5536H85.3742V34.7213H67.2855V44.2515ZM123.196 10.4286H118.45V44.5131H123.196V10.4286ZM96.4741 17.1185H107.798V22.6123H96.5115V36.5526H99.5761C105.78 36.5526 110.844 36.347 116.431 35.3566L116.02 31.5072C111.031 32.3294 106.64 32.591 101.445 32.6284V26.387H112.657V13.269H96.4741V17.1185ZM156.458 10.4286H151.749V22.4255H145.433V13.0448H140.761V21.3043H133.773V13.0448H129.026V36.4405H145.433V26.2749H151.749V44.5131H156.458V10.4286ZM133.773 32.6284V25.0416H140.761V32.6284H133.773ZM169.502 10.9892H164.793V22.4255H187.889V10.9892H183.143V13.3811H169.502V10.9892ZM160.831 27.9941H191.851V24.2941H160.831V27.9941ZM164.419 33.488H183.367V35.2819H164.456V44.2141H188.973V40.6263H169.128V38.6081H188.076V30.0122H164.419V33.488ZM169.502 18.875V16.8195H183.143V18.875H169.502Z" fill="#4E8AFF"/>
</svg>
