<svg width="173" height="46" viewBox="0 0 173 46" fill="none" xmlns="http://www.w3.org/2000/svg">
<path fill-rule="evenodd" clip-rule="evenodd" d="M16.5787 3.26846C26.5044 1.59219 35.9695 7.93995 37.7197 17.4466C39.4699 26.9532 32.8423 36.0187 22.9166 37.695L16.4861 38.781C12.3705 39.4761 8.81841 41.9479 6.8565 45.4821C6.40189 46.301 5.12289 46.107 4.95474 45.1936L0.211576 19.4295C-1.10949 12.2537 3.89316 5.41083 11.3853 4.14554L16.5787 3.26846ZM17.7399 12.9807C21.8766 12.2821 25.8214 14.9277 26.5508 18.8897C27.2699 22.7954 24.5947 26.5343 20.5322 27.3017L17.5964 27.8562C16.0014 28.1575 14.6203 29.1049 13.8093 30.4545C13.6127 30.7816 13.0968 30.695 13.0281 30.3234L11.8541 23.9736C11.6767 23.01 11.505 22.0749 11.3358 21.1518C10.6395 17.3539 13.2887 13.7325 17.2535 13.0629L17.7399 12.9807Z" fill="#4E8AFF"/>
<path d="M75.7031 6.24219H71.2383V22.3086H75.7031V6.24219ZM50.7773 21.2188H53.5547C60.7266 21.2539 64.6992 21.0254 69.0586 20.0938L68.5664 16.6836C64.6992 17.457 61.166 17.6855 55.2773 17.7031V11.4805H66.0352V7.96484H50.7773V21.2188ZM54.293 38.0586H76.5469V34.5781H58.7578V32.293H75.7031V23.5742H54.293V27.0547H71.3086V29.0938H54.293V38.0586ZM106.527 6.24219H102.062V38.3047H106.527V6.24219ZM81.39 12.5352H92.0423V17.7031H81.4252V30.8164H84.308C90.1439 30.8164 94.9076 30.623 100.163 29.6914L99.7767 26.0703C95.0834 26.8438 90.9525 27.0898 86.0658 27.125V21.2539H96.6127V8.91406H81.39V12.5352ZM137.456 6.24219H133.026V17.5273H127.085V8.70312H122.69V16.4727H116.116V8.70312H111.651V30.7109H127.085V21.1484H133.026V38.3047H137.456V6.24219ZM116.116 27.125V19.9883H122.69V27.125H116.116ZM149.365 6.76953H144.936V17.5273H166.662V6.76953H162.197V9.01953H149.365V6.76953ZM141.209 22.7656H170.389V19.2852H141.209V22.7656ZM144.584 27.9336H162.408V29.6211H144.619V38.0234H167.682V34.6484H149.014V32.75H166.838V24.6641H144.584V27.9336ZM149.365 14.1875V12.2539H162.197V14.1875H149.365Z" fill="#4E8AFF"/>
</svg>
