<svg width="140" height="56" viewBox="0 0 140 56" fill="none" xmlns="http://www.w3.org/2000/svg">
<path d="M37.5925 39.15C35.5795 39.15 33.8773 38.5186 32.486 37.2559C31.1242 35.9616 30.4434 34.1938 30.4434 31.9525C30.4434 29.6165 31.1094 27.7856 32.4416 26.4598C33.8033 25.1339 35.5055 24.471 37.5481 24.471C38.9987 24.471 40.1976 24.7551 41.1449 25.3233C42.0922 25.8916 42.8027 26.6176 43.2763 27.5015C43.75 28.3854 43.9868 29.3166 43.9868 30.2952C43.9868 31.9368 43.3059 32.7575 41.9442 32.7575H34.573C34.3362 32.7575 34.2178 32.9154 34.2178 33.231C34.2178 33.9571 34.5878 34.5411 35.3279 34.983C36.0976 35.3934 36.9561 35.5986 37.9034 35.5986C38.4954 35.5986 39.0875 35.5197 39.6795 35.3618C40.2716 35.1724 40.7897 34.9041 41.2337 34.5569C41.5297 34.3359 41.8406 34.2254 42.1662 34.2254C42.6103 34.2254 42.9803 34.399 43.2763 34.7463C43.602 35.0935 43.7648 35.5039 43.7648 35.9774C43.7648 36.5456 43.4835 37.0823 42.9211 37.5874C42.3882 38.0609 41.6037 38.4397 40.5676 38.7238C39.5611 39.0079 38.5694 39.15 37.5925 39.15ZM39.9016 30.0111C39.9608 30.0111 40.0348 29.9953 40.1236 29.9638C40.242 29.9322 40.3012 29.8217 40.3012 29.6323C40.3012 29.1588 40.02 28.7326 39.4575 28.3538C38.9247 27.9434 38.229 27.7383 37.3705 27.7383C36.4528 27.7383 35.6979 27.9592 35.1059 28.4012C34.5434 28.8116 34.2622 29.2377 34.2622 29.6797C34.2622 29.9006 34.3806 30.0111 34.6174 30.0111H39.9016Z" fill="#4E8AFF"/>
<path d="M48.6816 39.15C48.1191 39.15 47.6455 38.9763 47.2606 38.6291C46.8758 38.2819 46.6833 37.8399 46.6833 37.3033V19.6885C46.6833 19.1834 46.861 18.7573 47.2162 18.41C47.601 18.0312 48.0895 17.8418 48.6816 17.8418C49.244 17.8418 49.7029 18.0312 50.0581 18.41C50.4133 18.7573 50.591 19.1992 50.591 19.7359V37.2559C50.591 37.7926 50.3985 38.2503 50.0137 38.6291C49.6585 38.9763 49.2144 39.15 48.6816 39.15Z" fill="#4E8AFF"/>
<path d="M55.7646 39.15C55.2022 39.15 54.7285 38.9763 54.3437 38.6291C53.9588 38.2819 53.7664 37.8399 53.7664 37.3033V26.5545C53.7664 26.0494 53.944 25.6232 54.2993 25.276C54.6841 24.8972 55.1726 24.7078 55.7646 24.7078C56.3567 24.7078 56.8156 24.8972 57.1412 25.276C57.4964 25.6232 57.674 26.0652 57.674 26.6018V37.2559C57.674 37.7926 57.4816 38.2503 57.0968 38.6291C56.7415 38.9763 56.2975 39.15 55.7646 39.15ZM55.7646 22.3402C55.143 22.3402 54.6101 22.135 54.1661 21.7246C53.722 21.2827 53.5 20.7302 53.5 20.0673C53.5 19.4675 53.722 18.9467 54.1661 18.5047C54.6101 18.0628 55.143 17.8418 55.7646 17.8418C56.3567 17.8418 56.86 18.0628 57.2744 18.5047C57.7184 18.9467 57.9405 19.4675 57.9405 20.0673C57.9405 20.7302 57.7184 21.2827 57.2744 21.7246C56.86 22.135 56.3567 22.3402 55.7646 22.3402Z" fill="#4E8AFF"/>
<path d="M67.369 39.15C66.8362 39.15 66.3329 39.0237 65.8593 38.7712C65.3856 38.5186 65.0452 38.1398 64.8379 37.6347L60.5307 27.2174C60.4419 26.9333 60.3975 26.6492 60.3975 26.3651C60.3975 25.7337 60.6047 25.2602 61.0191 24.9445C61.4336 24.6288 61.9072 24.471 62.4401 24.471C62.8545 24.471 63.2098 24.5973 63.5058 24.8498C63.8314 25.0708 64.0535 25.3865 64.1719 25.7968L66.7918 33.4204C66.9398 33.8308 67.147 34.036 67.4134 34.036C67.6502 34.036 67.8427 33.8308 67.9907 33.4204L70.4329 25.7968C70.581 25.3549 70.8178 25.0234 71.1434 24.8025C71.469 24.5815 71.8243 24.471 72.2091 24.471C72.7124 24.471 73.1564 24.6446 73.5413 24.9919C73.9557 25.3075 74.1629 25.7968 74.1629 26.4598C74.1629 26.586 74.1629 26.7123 74.1629 26.8386C74.1629 26.9333 74.1333 27.0596 74.0741 27.2174L69.9001 37.6347C69.6929 38.1398 69.3524 38.5186 68.8788 38.7712C68.4347 39.0237 67.9315 39.15 67.369 39.15Z" fill="#4E8AFF"/>
<path d="M82.2141 39.15C80.2011 39.15 78.4989 38.5186 77.1075 37.2559C75.7458 35.9616 75.0649 34.1938 75.0649 31.9525C75.0649 29.6165 75.731 27.7856 77.0631 26.4598C78.4249 25.1339 80.127 24.471 82.1697 24.471C83.6202 24.471 84.8191 24.7551 85.7664 25.3233C86.7137 25.8916 87.4242 26.6176 87.8979 27.5015C88.3715 28.3854 88.6083 29.3166 88.6083 30.2952C88.6083 31.9368 87.9275 32.7575 86.5657 32.7575H79.1945C78.9577 32.7575 78.8393 32.9154 78.8393 33.231C78.8393 33.9571 79.2093 34.5411 79.9494 34.983C80.7191 35.3934 81.5776 35.5986 82.5249 35.5986C83.117 35.5986 83.709 35.5197 84.3011 35.3618C84.8932 35.1724 85.4112 34.9041 85.8553 34.5569C86.1513 34.3359 86.4621 34.2254 86.7878 34.2254C87.2318 34.2254 87.6018 34.399 87.8979 34.7463C88.2235 35.0935 88.3863 35.5039 88.3863 35.9774C88.3863 36.5456 88.1051 37.0823 87.5426 37.5874C87.0098 38.0609 86.2253 38.4397 85.1892 38.7238C84.1827 39.0079 83.191 39.15 82.2141 39.15ZM84.5231 30.0111C84.5823 30.0111 84.6563 29.9953 84.7451 29.9638C84.8635 29.9322 84.9228 29.8217 84.9228 29.6323C84.9228 29.1588 84.6415 28.7326 84.0791 28.3538C83.5462 27.9434 82.8505 27.7383 81.992 27.7383C81.0743 27.7383 80.3195 27.9592 79.7274 28.4012C79.1649 28.8116 78.8837 29.2377 78.8837 29.6797C78.8837 29.9006 79.0021 30.0111 79.2389 30.0111H84.5231Z" fill="#4E8AFF"/>
<path d="M93.2587 39.0079C92.6962 39.0079 92.2226 38.8343 91.8378 38.487C91.4529 38.1398 91.2605 37.6979 91.2605 37.1612V26.5545C91.2605 26.0494 91.4381 25.6232 91.7933 25.276C92.1782 24.8972 92.6666 24.7078 93.2587 24.7078C93.7916 24.7078 94.2208 24.8814 94.5464 25.2286C94.9017 25.5443 95.1089 25.9389 95.1681 26.4124C95.4937 25.8758 95.9378 25.418 96.5002 25.0392C97.0627 24.6604 97.6548 24.471 98.2764 24.471C98.6613 24.471 99.0313 24.5184 99.3866 24.6131C99.801 24.7393 100.141 24.9919 100.408 25.3707C100.674 25.7179 100.808 26.1283 100.808 26.6018C100.808 27.2647 100.6 27.8172 100.186 28.2591C99.801 28.6695 99.3422 28.8116 98.8093 28.6853C98.4244 28.5906 98.0396 28.5432 97.6548 28.5432C96.9739 28.5432 96.4114 28.7958 95.9674 29.3009C95.5233 29.8059 95.2569 30.8319 95.1681 32.3787V37.1139C95.1681 37.6505 94.9757 38.1082 94.5908 38.487C94.2356 38.8343 93.7916 39.0079 93.2587 39.0079Z" fill="#4E8AFF"/>
<path d="M105.904 38.6765C105.075 38.6765 104.379 38.3923 103.817 37.8241C103.284 37.2243 103.017 36.4825 103.017 35.5986V22.4349C103.017 21.6141 103.284 20.9196 103.817 20.3514C104.349 19.7832 105.001 19.4991 105.77 19.4991H110.033C111.691 19.4991 113.023 19.9884 114.03 20.967C115.036 21.914 115.539 23.082 115.539 24.471C115.539 25.9547 115.081 27.1385 114.163 28.0224C115.761 28.9063 116.561 30.4215 116.561 32.5681C116.561 34.3675 116.013 35.8354 114.918 36.9718C113.822 38.1082 112.357 38.6765 110.522 38.6765H105.904ZM107.591 34.8883H110.699C111.291 34.8883 111.78 34.6989 112.165 34.3201C112.579 33.9413 112.786 33.3889 112.786 32.6628C112.786 31.9368 112.594 31.3843 112.209 31.0055C111.824 30.6267 111.321 30.4373 110.699 30.4373H107.591C107.147 30.4373 106.925 30.6741 106.925 31.1476V34.1781C106.925 34.6516 107.147 34.8883 107.591 34.8883ZM107.591 26.8386H110.033C110.566 26.8386 110.981 26.6492 111.277 26.2704C111.573 25.8916 111.721 25.4812 111.721 25.0392C111.721 24.5973 111.573 24.2027 111.277 23.8554C110.981 23.4766 110.566 23.2872 110.033 23.2872H107.591C107.147 23.2872 106.925 23.524 106.925 23.9975V26.1283C106.925 26.6018 107.147 26.8386 107.591 26.8386Z" fill="#4E8AFF"/>
<path d="M121.49 39.15C120.927 39.15 120.454 38.9763 120.069 38.6291C119.684 38.2819 119.491 37.8399 119.491 37.3033V19.6885C119.491 19.1834 119.669 18.7573 120.024 18.41C120.409 18.0312 120.898 17.8418 121.49 17.8418C122.052 17.8418 122.511 18.0312 122.866 18.41C123.221 18.7573 123.399 19.1992 123.399 19.7359V37.2559C123.399 37.7926 123.207 38.2503 122.822 38.6291C122.467 38.9763 122.023 39.15 121.49 39.15Z" fill="#4E8AFF"/>
<path d="M133.253 39.15C131.24 39.15 129.538 38.5186 128.147 37.2559C126.785 35.9616 126.104 34.1938 126.104 31.9525C126.104 29.6165 126.77 27.7856 128.103 26.4598C129.464 25.1339 131.166 24.471 133.209 24.471C134.66 24.471 135.859 24.7551 136.806 25.3233C137.753 25.8916 138.464 26.6176 138.937 27.5015C139.411 28.3854 139.648 29.3166 139.648 30.2952C139.648 31.9368 138.967 32.7575 137.605 32.7575H130.234C129.997 32.7575 129.879 32.9154 129.879 33.231C129.879 33.9571 130.249 34.5411 130.989 34.983C131.759 35.3934 132.617 35.5986 133.564 35.5986C134.156 35.5986 134.748 35.5197 135.341 35.3618C135.933 35.1724 136.451 34.9041 136.895 34.5569C137.191 34.3359 137.502 34.2254 137.827 34.2254C138.271 34.2254 138.641 34.399 138.937 34.7463C139.263 35.0935 139.426 35.5039 139.426 35.9774C139.426 36.5456 139.145 37.0823 138.582 37.5874C138.049 38.0609 137.265 38.4397 136.229 38.7238C135.222 39.0079 134.23 39.15 133.253 39.15ZM135.563 30.0111C135.622 30.0111 135.696 29.9953 135.785 29.9638C135.903 29.9322 135.962 29.8217 135.962 29.6323C135.962 29.1588 135.681 28.7326 135.118 28.3538C134.586 27.9434 133.89 27.7383 133.031 27.7383C132.114 27.7383 131.359 27.9592 130.767 28.4012C130.204 28.8116 129.923 29.2377 129.923 29.6797C129.923 29.9006 130.042 30.0111 130.278 30.0111H135.563Z" fill="#4E8AFF"/>
<path fill-rule="evenodd" clip-rule="evenodd" d="M12.6522 11.2123C20.227 9.88685 27.4504 14.906 28.7861 22.4229C30.1217 29.9397 25.0639 37.1078 17.489 38.4333L12.5815 39.292C9.44062 39.8415 6.72984 41.796 5.23259 44.5905C4.88566 45.238 3.90958 45.0846 3.78125 44.3624L0.161466 23.9908C-0.846716 18.3169 2.97109 12.9062 8.68878 11.9058L12.6522 11.2123ZM13.5383 18.8917C16.6953 18.3393 19.7058 20.4312 20.2625 23.564C20.8112 26.6522 18.7696 29.6086 15.6693 30.2153L13.4289 30.6537C12.2116 30.8919 11.1576 31.6411 10.5387 32.7082C10.3886 32.9668 9.99496 32.8984 9.94252 32.6045L9.04656 27.5838C8.91118 26.8219 8.78017 26.0825 8.65101 25.3526C8.11961 22.3496 10.1414 19.4861 13.1671 18.9567L13.5383 18.8917Z" fill="#4E8AFF"/>
</svg>
