<svg width="60" height="60" viewBox="0 0 60 60" fill="none" xmlns="http://www.w3.org/2000/svg">
<rect width="60" height="60" rx="30" fill="#E5EEFF"/>
<rect x="21.0947" y="13.5" width="17.8075" height="24.4717" rx="8.90377" fill="#4E8AFF"/>
<path d="M19.1629 32.6603C18.9107 31.5427 17.8004 30.8412 16.6828 31.0933C15.5652 31.3455 14.8636 32.4558 15.1158 33.5734C15.8213 36.7007 18.8108 42.2748 25.4143 44.0972C25.7559 44.1915 25.9953 44.4964 26.0543 44.8458C26.3735 46.7362 28.0184 48.176 29.9995 48.176C31.7708 48.176 33.2732 47.0251 33.7999 45.4304C34.0221 44.7574 34.4875 44.1411 35.1627 43.9257C41.3643 41.947 44.1996 36.6081 44.8843 33.5734C45.1364 32.4558 44.4349 31.3455 43.3173 31.0933C42.1997 30.8412 41.0893 31.5427 40.8372 32.6603C40.2601 35.2182 37.2963 40.5428 30 40.5428C22.7038 40.5428 19.74 35.2182 19.1629 32.6603Z" fill="#A7C5FF"/>
</svg>
