<svg width="34" height="34" viewBox="0 0 34 34" fill="none" xmlns="http://www.w3.org/2000/svg">
<circle cx="17" cy="17" r="15" fill="#F3F3F5" stroke="#F3F3F5" stroke-width="2"/>
<path d="M17 21.8957C17.3978 21.8957 17.7794 22.0523 18.0607 22.3312C18.342 22.61 18.5 22.9882 18.5 23.3826C18.5 23.777 18.342 24.1552 18.0607 24.434C17.7794 24.7129 17.3978 24.8696 17 24.8696C16.6022 24.8696 16.2206 24.7129 15.9393 24.434C15.658 24.1552 15.5 23.777 15.5 23.3826C15.5 22.9882 15.658 22.61 15.9393 22.3312C16.2206 22.0523 16.6022 21.8957 17 21.8957ZM17 10C18.0609 10 19.0783 10.4178 19.8284 11.1614C20.5786 11.905 21 12.9136 21 13.9652C21 15.4125 20.576 16.2254 19.492 17.3515L18.964 17.8868C18.21 18.664 18 19.0843 18 19.913C18 20.176 17.8946 20.4281 17.7071 20.614C17.5196 20.7999 17.2652 20.9043 17 20.9043C16.7348 20.9043 16.4804 20.7999 16.2929 20.614C16.1054 20.4281 16 20.176 16 19.913C16 18.4657 16.424 17.6529 17.508 16.5267L18.036 15.9914C18.79 15.2143 19 14.7939 19 13.9652C19 13.4394 18.7893 12.9351 18.4142 12.5633C18.0391 12.1915 17.5304 11.9826 17 11.9826C16.4696 11.9826 15.9609 12.1915 15.5858 12.5633C15.2107 12.9351 15 13.4394 15 13.9652C15 14.2281 14.8946 14.4803 14.7071 14.6662C14.5196 14.8521 14.2652 14.9565 14 14.9565C13.7348 14.9565 13.4804 14.8521 13.2929 14.6662C13.1054 14.4803 13 14.2281 13 13.9652C13 12.9136 13.4214 11.905 14.1716 11.1614C14.9217 10.4178 15.9391 10 17 10Z" fill="#736F86"/>
</svg>
