<svg width="24" height="24" viewBox="0 0 24 24" fill="none" xmlns="http://www.w3.org/2000/svg">
<path d="M0 12C0 5.37258 5.37258 0 12 0C18.6274 0 24 5.37258 24 12C24 18.6274 18.6274 24 12 24C5.37258 24 0 18.6274 0 12Z" fill="#F1F6FF"/>
<rect opacity="0.5" x="5" y="15.75" width="14" height="2.25" rx="1.125" fill="#4E8AFF"/>
<path d="M17.2105 5.22467C16.2521 4.26626 14.6982 4.26626 13.7398 5.22467L9.02956 9.93492C8.74628 10.2182 8.74628 10.6775 9.02956 10.9607L11.4744 13.4056C11.7577 13.6889 12.217 13.6889 12.5003 13.4056L17.2105 8.69538C18.1689 7.73697 18.1689 6.18308 17.2105 5.22467Z" fill="#4E8AFF"/>
<path d="M10.7928 13.7781L10.7925 13.7784L8.62753 11.6134L6.63068 13.7787L9.67067 14.9015L10.7925 13.7784L10.7928 13.7787V13.7781Z" fill="#4E8AFF"/>
</svg>
