<svg width="32" height="32" viewBox="0 0 32 32" fill="none" xmlns="http://www.w3.org/2000/svg">
<path d="M16 20.8957C16.3978 20.8957 16.7794 21.0523 17.0607 21.3312C17.342 21.61 17.5 21.9882 17.5 22.3826C17.5 22.777 17.342 23.1552 17.0607 23.434C16.7794 23.7129 16.3978 23.8696 16 23.8696C15.6022 23.8696 15.2206 23.7129 14.9393 23.434C14.658 23.1552 14.5 22.777 14.5 22.3826C14.5 21.9882 14.658 21.61 14.9393 21.3312C15.2206 21.0523 15.6022 20.8957 16 20.8957ZM16 9C17.0609 9 18.0783 9.41776 18.8284 10.1614C19.5786 10.905 20 11.9136 20 12.9652C20 14.4125 19.576 15.2254 18.492 16.3515L17.964 16.8868C17.21 17.664 17 18.0843 17 18.913C17 19.176 16.8946 19.4281 16.7071 19.614C16.5196 19.7999 16.2652 19.9043 16 19.9043C15.7348 19.9043 15.4804 19.7999 15.2929 19.614C15.1054 19.4281 15 19.176 15 18.913C15 17.4657 15.424 16.6529 16.508 15.5267L17.036 14.9914C17.79 14.2143 18 13.7939 18 12.9652C18 12.4394 17.7893 11.9351 17.4142 11.5633C17.0391 11.1915 16.5304 10.9826 16 10.9826C15.4696 10.9826 14.9609 11.1915 14.5858 11.5633C14.2107 11.9351 14 12.4394 14 12.9652C14 13.2281 13.8946 13.4803 13.7071 13.6662C13.5196 13.8521 13.2652 13.9565 13 13.9565C12.7348 13.9565 12.4804 13.8521 12.2929 13.6662C12.1054 13.4803 12 13.2281 12 12.9652C12 11.9136 12.4214 10.905 13.1716 10.1614C13.9217 9.41776 14.9391 9 16 9Z" fill="#BAB7C3"/>
<path d="M16 30C8.26801 30 2 23.732 2 16H-2C-2 25.9411 6.05887 34 16 34V30ZM30 16C30 23.732 23.732 30 16 30V34C25.9411 34 34 25.9411 34 16H30ZM16 2C23.732 2 30 8.26801 30 16H34C34 6.05887 25.9411 -2 16 -2V2ZM16 -2C6.05887 -2 -2 6.05887 -2 16H2C2 8.26801 8.26801 2 16 2V-2Z" fill="#F3F3F5"/>
</svg>
