<svg width="30" height="30" viewBox="0 0 30 30" fill="none" xmlns="http://www.w3.org/2000/svg">
<rect width="30" height="30" rx="15" fill="#BAB7C3"/>
<path d="M9.28985 14.1216C8.95114 13.6853 8.32293 13.6063 7.8867 13.945C7.45048 14.2837 7.37143 14.9119 7.71015 15.3481L9.28985 14.1216ZM12.9118 20.4167L12.1219 21.03C12.3113 21.2739 12.6029 21.4167 12.9118 21.4167C13.2206 21.4167 13.5122 21.2739 13.7016 21.03L12.9118 20.4167ZM21.7899 10.6133C22.1286 10.1771 22.0495 9.54886 21.6133 9.21015C21.1771 8.87143 20.5489 8.95048 20.2101 9.3867L21.7899 10.6133ZM7.71015 15.3481L12.1219 21.03L13.7016 19.8034L9.28985 14.1216L7.71015 15.3481ZM13.7016 21.03L21.7899 10.6133L20.2101 9.3867L12.1219 19.8034L13.7016 21.03Z" fill="white"/>
</svg>
