<svg width="24" height="24" viewBox="0 0 24 24" fill="none" xmlns="http://www.w3.org/2000/svg">
<path d="M12.2405 2C6.01808 2 1 6.01442 1 10.888C1 14.0514 3.08752 16.8213 6.2188 18.403L5.15898 22.3613C5.139 22.4207 5.13593 22.4843 5.15011 22.5453C5.16429 22.6063 5.19516 22.6621 5.23927 22.7065C5.30359 22.7633 5.38635 22.7946 5.47211 22.7948C5.54322 22.7891 5.61068 22.761 5.6648 22.7146L10.2252 19.6395C10.8984 19.7324 11.577 19.7807 12.2566 19.784C18.4709 19.784 23.4971 15.7696 23.4971 10.888C23.4971 6.00639 18.4549 2 12.2405 2Z" fill="#392020"/>
</svg>
