<svg width="40" height="40" viewBox="0 0 40 40" fill="none" xmlns="http://www.w3.org/2000/svg">
<path d="M0 20C0 8.95431 8.95431 0 20 0V0C31.0457 0 40 8.95431 40 20V20C40 31.0457 31.0457 40 20 40V40C8.95431 40 0 31.0457 0 20V20Z" fill="white"/>
<path d="M19.5764 13.177L20 13.5992L20.4236 13.177C23.1609 10.4485 28.0301 11.4523 29.7678 14.7427C30.614 16.3452 30.7403 18.5579 29.3376 21.2414C27.9551 23.8863 25.0893 26.974 20 30.2858C14.9106 26.9743 12.0449 23.8867 10.6624 21.242C9.25969 18.5585 9.38596 16.3458 10.2322 14.7432C11.9699 11.4526 16.8391 10.4486 19.5764 13.177Z" stroke="#BAB7C3" stroke-width="1.2"/>
</svg>
