<svg width="121" height="37" viewBox="0 0 121 37" fill="none" xmlns="http://www.w3.org/2000/svg">
<path fill-rule="evenodd" clip-rule="evenodd" d="M12.6522 3.21227C20.227 1.88685 27.4504 6.906 28.7861 14.4229C30.1217 21.9397 25.0639 29.1078 17.489 30.4333L12.5815 31.292C9.44062 31.8415 6.72984 33.796 5.23259 36.5905C4.88566 37.238 3.90958 37.0846 3.78125 36.3624L0.161466 15.9908C-0.846716 10.3169 2.97109 4.90624 8.68878 3.90578L12.6522 3.21227ZM13.5383 10.8917C16.6953 10.3393 19.7058 12.4312 20.2625 15.564C20.8112 18.6522 18.7696 21.6086 15.6693 22.2153L13.4289 22.6537C12.2116 22.8919 11.1576 23.6411 10.5387 24.7082C10.3886 24.9668 9.99496 24.8984 9.94252 24.6045L9.04656 19.5838C8.91118 18.8219 8.78017 18.0825 8.65101 17.3526C8.11961 14.3496 10.1414 11.4861 13.1671 10.9567L13.5383 10.8917Z" fill="white"/>
<path d="M56.4688 6.82812H53.4922V17.5391H56.4688V6.82812ZM39.8516 16.8125H41.7031C46.4844 16.8359 49.1328 16.6836 52.0391 16.0625L51.7109 13.7891C49.1328 14.3047 46.7773 14.457 42.8516 14.4688V10.3203H50.0234V7.97656H39.8516V16.8125ZM42.1953 28.0391H57.0312V25.7188H45.1719V24.1953H56.4688V18.3828H42.1953V20.7031H53.5391V22.0625H42.1953V28.0391ZM77.2578 6.82812H74.2812V28.2031H77.2578V6.82812ZM60.5 11.0234H67.6016V14.4688H60.5234V23.2109H62.4453C66.3359 23.2109 69.5117 23.082 73.0156 22.4609L72.7578 20.0469C69.6289 20.5625 66.875 20.7266 63.6172 20.75V16.8359H70.6484V8.60938H60.5V11.0234ZM98.1172 6.82812H95.1641V14.3516H91.2031V8.46875H88.2734V13.6484H83.8906V8.46875H80.9141V23.1406H91.2031V16.7656H95.1641V28.2031H98.1172V6.82812ZM83.8906 20.75V15.9922H88.2734V20.75H83.8906ZM106.297 7.17969H103.344V14.3516H117.828V7.17969H114.852V8.67969H106.297V7.17969ZM100.859 17.8438H120.312V15.5234H100.859V17.8438ZM103.109 21.2891H114.992V22.4141H103.133V28.0156H118.508V25.7656H106.062V24.5H117.945V19.1094H103.109V21.2891ZM106.297 12.125V10.8359H114.852V12.125H106.297Z" fill="white"/>
</svg>
