<svg width="200" height="49" viewBox="0 0 200 49" fill="none" xmlns="http://www.w3.org/2000/svg">
<path d="M53.8404 40.3147C50.9574 40.3147 48.5196 39.4105 46.5269 37.6021C44.5767 35.7485 43.6016 33.2167 43.6016 30.0068C43.6016 26.6613 44.5555 24.0391 46.4633 22.1402C48.4136 20.2414 50.8514 19.292 53.7768 19.292C55.8542 19.292 57.5713 19.6989 58.928 20.5127C60.2847 21.3265 61.3022 22.3663 61.9805 23.6322C62.6589 24.8981 62.9981 26.2318 62.9981 27.6333C62.9981 29.9842 62.0229 31.1597 60.0727 31.1597H49.5159C49.1767 31.1597 49.0071 31.3857 49.0071 31.8378C49.0071 32.8777 49.5371 33.714 50.597 34.347C51.6993 34.9347 52.9288 35.2286 54.2855 35.2286C55.1335 35.2286 55.9814 35.1156 56.8293 34.8895C57.6773 34.6183 58.4192 34.234 59.0552 33.7367C59.4791 33.4202 59.9243 33.262 60.3907 33.262C61.0266 33.262 61.5566 33.5106 61.9805 34.0079C62.4469 34.5052 62.6801 35.093 62.6801 35.7711C62.6801 36.5849 62.2773 37.3535 61.4718 38.0768C60.7086 38.755 59.5851 39.2975 58.1012 39.7044C56.6597 40.1113 55.2395 40.3147 53.8404 40.3147ZM57.1473 27.2264C57.2321 27.2264 57.3381 27.2038 57.4653 27.1586C57.6349 27.1134 57.7197 26.9551 57.7197 26.6839C57.7197 26.0057 57.3169 25.3954 56.5114 24.8529C55.7482 24.2651 54.7519 23.9713 53.5224 23.9713C52.2081 23.9713 51.127 24.2877 50.279 24.9207C49.4735 25.5084 49.0707 26.1187 49.0707 26.7517C49.0707 27.0682 49.2403 27.2264 49.5795 27.2264H57.1473Z" fill="#4E8AFF"/>
<path d="M69.7217 40.3147C68.9162 40.3147 68.2379 40.0661 67.6867 39.5688C67.1355 39.0715 66.86 38.4385 66.86 37.6699V12.4426C66.86 11.7193 67.1143 11.1089 67.6231 10.6116C68.1743 10.0691 68.8738 9.79785 69.7217 9.79785C70.5273 9.79785 71.1844 10.0691 71.6932 10.6116C72.2019 11.1089 72.4563 11.7419 72.4563 12.5105V37.6021C72.4563 38.3707 72.1808 39.0263 71.6296 39.5688C71.1208 40.0661 70.4849 40.3147 69.7217 40.3147Z" fill="#4E8AFF"/>
<path d="M79.8659 40.3147C79.0604 40.3147 78.382 40.0661 77.8309 39.5688C77.2797 39.0715 77.0041 38.4385 77.0041 37.6699V22.2759C77.0041 21.5525 77.2585 20.9422 77.7673 20.4449C78.3184 19.9023 79.018 19.6311 79.8659 19.6311C80.7138 19.6311 81.371 19.9023 81.8374 20.4449C82.3461 20.9422 82.6005 21.5751 82.6005 22.3437V37.6021C82.6005 38.3707 82.3249 39.0263 81.7738 39.5688C81.265 40.0661 80.629 40.3147 79.8659 40.3147ZM79.8659 16.2403C78.9756 16.2403 78.2124 15.9464 77.5765 15.3587C76.9405 14.7258 76.6226 13.9346 76.6226 12.9852C76.6226 12.1262 76.9405 11.3802 77.5765 10.7473C78.2124 10.1143 78.9756 9.79785 79.8659 9.79785C80.7138 9.79785 81.4346 10.1143 82.0281 10.7473C82.6641 11.3802 82.9821 12.1262 82.9821 12.9852C82.9821 13.9346 82.6641 14.7258 82.0281 15.3587C81.4346 15.9464 80.7138 16.2403 79.8659 16.2403Z" fill="#4E8AFF"/>
<path d="M96.4853 40.3147C95.7222 40.3147 95.0014 40.1339 94.3231 39.7722C93.6447 39.4105 93.1572 38.868 92.8604 38.1447L86.6917 23.2253C86.5645 22.8184 86.5009 22.4115 86.5009 22.0046C86.5009 21.1004 86.7977 20.4223 87.3912 19.9701C87.9848 19.518 88.6631 19.292 89.4263 19.292C90.0198 19.292 90.5286 19.4728 90.9526 19.8345C91.4189 20.151 91.7369 20.6031 91.9065 21.1908L95.6586 32.1091C95.8706 32.6968 96.1673 32.9907 96.5489 32.9907C96.8881 32.9907 97.1637 32.6968 97.3756 32.1091L100.873 21.1908C101.085 20.5579 101.425 20.0832 101.891 19.7667C102.357 19.4502 102.866 19.292 103.417 19.292C104.138 19.292 104.774 19.5407 105.325 20.038C105.919 20.4901 106.215 21.1908 106.215 22.1402C106.215 22.3211 106.215 22.5019 106.215 22.6828C106.215 22.8184 106.173 22.9992 106.088 23.2253L100.11 38.1447C99.8135 38.868 99.3259 39.4105 98.6476 39.7722C98.0116 40.1339 97.2909 40.3147 96.4853 40.3147Z" fill="#4E8AFF"/>
<path d="M117.746 40.3147C114.863 40.3147 112.425 39.4105 110.433 37.6021C108.482 35.7485 107.507 33.2167 107.507 30.0068C107.507 26.6613 108.461 24.0391 110.369 22.1402C112.319 20.2414 114.757 19.292 117.682 19.292C119.76 19.292 121.477 19.6989 122.834 20.5127C124.19 21.3265 125.208 22.3663 125.886 23.6322C126.564 24.8981 126.904 26.2318 126.904 27.6333C126.904 29.9842 125.929 31.1597 123.978 31.1597H113.421C113.082 31.1597 112.913 31.3857 112.913 31.8378C112.913 32.8777 113.443 33.714 114.503 34.347C115.605 34.9347 116.834 35.2286 118.191 35.2286C119.039 35.2286 119.887 35.1156 120.735 34.8895C121.583 34.6183 122.325 34.234 122.961 33.7367C123.385 33.4202 123.83 33.262 124.296 33.262C124.932 33.262 125.462 33.5106 125.886 34.0079C126.352 34.5052 126.586 35.093 126.586 35.7711C126.586 36.5849 126.183 37.3535 125.377 38.0768C124.614 38.755 123.491 39.2975 122.007 39.7044C120.565 40.1113 119.145 40.3147 117.746 40.3147ZM121.053 27.2264C121.138 27.2264 121.244 27.2038 121.371 27.1586C121.54 27.1134 121.625 26.9551 121.625 26.6839C121.625 26.0057 121.222 25.3954 120.417 24.8529C119.654 24.2651 118.657 23.9713 117.428 23.9713C116.114 23.9713 115.033 24.2877 114.185 24.9207C113.379 25.5084 112.976 26.1187 112.976 26.7517C112.976 27.0682 113.146 27.2264 113.485 27.2264H121.053Z" fill="#4E8AFF"/>
<path d="M133.564 40.1113C132.758 40.1113 132.08 39.8626 131.529 39.3653C130.978 38.868 130.702 38.2351 130.702 37.4665V22.2759C130.702 21.5525 130.956 20.9422 131.465 20.4449C132.016 19.9023 132.716 19.6311 133.564 19.6311C134.327 19.6311 134.942 19.8797 135.408 20.377C135.917 20.8291 136.214 21.3943 136.298 22.0724C136.765 21.3038 137.401 20.6483 138.206 20.1058C139.012 19.5633 139.86 19.292 140.75 19.292C141.301 19.292 141.831 19.3598 142.34 19.4954C142.933 19.6763 143.421 20.038 143.803 20.5805C144.184 21.0778 144.375 21.6655 144.375 22.3437C144.375 23.2931 144.078 24.0843 143.485 24.7172C142.933 25.305 142.276 25.5084 141.513 25.3276C140.962 25.1919 140.411 25.1241 139.86 25.1241C138.885 25.1241 138.079 25.4858 137.443 26.2092C136.807 26.9325 136.426 28.4019 136.298 30.6172V37.3987C136.298 38.1673 136.023 38.8228 135.472 39.3653C134.963 39.8626 134.327 40.1113 133.564 40.1113Z" fill="#4E8AFF"/>
<path d="M151.673 39.6366C150.486 39.6366 149.49 39.2297 148.684 38.4159C147.921 37.5569 147.54 36.4945 147.54 35.2286V16.3759C147.54 15.2005 147.921 14.2058 148.684 13.3921C149.448 12.5783 150.38 12.1714 151.483 12.1714H157.588C159.962 12.1714 161.87 12.8721 163.311 14.2737C164.753 15.63 165.474 17.3027 165.474 19.292C165.474 21.4169 164.816 23.1123 163.502 24.3781C165.792 25.644 166.936 27.8141 166.936 30.8884C166.936 33.4654 166.152 35.5677 164.583 37.1952C163.015 38.8228 160.916 39.6366 158.287 39.6366H151.673ZM154.09 34.2114H158.542C159.39 34.2114 160.089 33.9401 160.64 33.3976C161.234 32.8551 161.531 32.0639 161.531 31.024C161.531 29.9842 161.255 29.193 160.704 28.6505C160.153 28.108 159.432 27.8367 158.542 27.8367H154.09C153.454 27.8367 153.136 28.1758 153.136 28.854V33.1941C153.136 33.8723 153.454 34.2114 154.09 34.2114ZM154.09 22.6828H157.588C158.351 22.6828 158.944 22.4115 159.368 21.869C159.792 21.3265 160.004 20.7387 160.004 20.1058C160.004 19.4728 159.792 18.9077 159.368 18.4104C158.944 17.8679 158.351 17.5966 157.588 17.5966H154.09C153.454 17.5966 153.136 17.9357 153.136 18.6138V21.6655C153.136 22.3437 153.454 22.6828 154.09 22.6828Z" fill="#4E8AFF"/>
<path d="M173.995 40.3147C173.19 40.3147 172.511 40.0661 171.96 39.5688C171.409 39.0715 171.134 38.4385 171.134 37.6699V12.4426C171.134 11.7193 171.388 11.1089 171.897 10.6116C172.448 10.0691 173.147 9.79785 173.995 9.79785C174.801 9.79785 175.458 10.0691 175.967 10.6116C176.475 11.1089 176.73 11.7419 176.73 12.5105V37.6021C176.73 38.3707 176.454 39.0263 175.903 39.5688C175.394 40.0661 174.758 40.3147 173.995 40.3147Z" fill="#4E8AFF"/>
<path d="M190.843 40.3147C187.96 40.3147 185.522 39.4105 183.53 37.6021C181.579 35.7485 180.604 33.2167 180.604 30.0068C180.604 26.6613 181.558 24.0391 183.466 22.1402C185.416 20.2414 187.854 19.292 190.779 19.292C192.857 19.292 194.574 19.6989 195.931 20.5127C197.287 21.3265 198.305 22.3663 198.983 23.6322C199.662 24.8981 200.001 26.2318 200.001 27.6333C200.001 29.9842 199.026 31.1597 197.075 31.1597H186.519C186.179 31.1597 186.01 31.3857 186.01 31.8378C186.01 32.8777 186.54 33.714 187.6 34.347C188.702 34.9347 189.931 35.2286 191.288 35.2286C192.136 35.2286 192.984 35.1156 193.832 34.8895C194.68 34.6183 195.422 34.234 196.058 33.7367C196.482 33.4202 196.927 33.262 197.393 33.262C198.029 33.262 198.559 33.5106 198.983 34.0079C199.45 34.5052 199.683 35.093 199.683 35.7711C199.683 36.5849 199.28 37.3535 198.474 38.0768C197.711 38.755 196.588 39.2975 195.104 39.7044C193.662 40.1113 192.242 40.3147 190.843 40.3147ZM194.15 27.2264C194.235 27.2264 194.341 27.2038 194.468 27.1586C194.638 27.1134 194.722 26.9551 194.722 26.6839C194.722 26.0057 194.32 25.3954 193.514 24.8529C192.751 24.2651 191.755 23.9713 190.525 23.9713C189.211 23.9713 188.13 24.2877 187.282 24.9207C186.476 25.5084 186.073 26.1187 186.073 26.7517C186.073 27.0682 186.243 27.2264 186.582 27.2264H194.15Z" fill="#4E8AFF"/>
<path fill-rule="evenodd" clip-rule="evenodd" d="M18.1201 0.304013C28.9685 -1.59422 39.3136 5.59406 41.2265 16.3595C43.1394 27.1249 35.8957 37.3908 25.0472 39.289L18.0189 40.5188C13.5206 41.3059 9.63826 44.1051 7.49396 48.1073C6.99708 49.0346 5.59917 48.8149 5.41538 47.7806L0.231247 18.605C-1.21264 10.479 4.25511 2.73006 12.4438 1.29723L18.1201 0.304013ZM19.3892 11.3023C23.9105 10.5112 28.222 13.507 29.0193 17.9937C29.8052 22.4165 26.8813 26.6506 22.4411 27.5195L19.2324 28.1474C17.489 28.4886 15.9796 29.5616 15.0931 31.0898C14.8783 31.4602 14.3145 31.3621 14.2394 30.9413L12.9562 23.7508C12.7623 22.6596 12.5747 21.6006 12.3897 20.5553C11.6286 16.2546 14.5241 12.1536 18.8576 11.3953L19.3892 11.3023Z" fill="#4E8AFF"/>
</svg>
