<svg width="24" height="24" viewBox="0 0 24 24" fill="none" xmlns="http://www.w3.org/2000/svg">
<path d="M8.58489 4.55864C8.80072 4.4616 9.04608 4.45348 9.26786 4.53602C9.48964 4.61856 9.66999 4.78513 9.76986 4.99966C9.86973 5.21419 9.88109 5.45943 9.80148 5.68227C9.72186 5.90512 9.55769 6.08765 9.34449 6.19034C8.04297 6.79426 6.9867 7.82454 6.35055 9.11062C5.7144 10.3967 5.53652 11.8615 5.84634 13.2624C6.15616 14.6634 6.93511 15.9165 8.05424 16.8144C9.17337 17.7123 10.5656 18.2011 12.0004 18.1999C13.4334 18.2 14.8235 17.7114 15.9413 16.8149C17.0592 15.9183 17.8378 14.6674 18.1488 13.2685C18.4598 11.8697 18.2845 10.4067 17.6518 9.12097C17.0191 7.83524 15.9669 6.8037 14.6689 6.19664C14.4569 6.0929 14.2941 5.91003 14.2157 5.68743C14.1372 5.46484 14.1493 5.22032 14.2494 5.00657C14.3495 4.79282 14.5295 4.62694 14.7508 4.54467C14.972 4.4624 15.2167 4.47033 15.4321 4.56674C16.8274 5.21886 18.0077 6.25543 18.8346 7.55481C19.6615 8.85419 20.1006 10.3625 20.1004 11.9026C20.1004 16.3747 16.4734 19.9999 12.0004 19.9999C7.52739 19.9999 3.90039 16.3747 3.90039 11.9026C3.90008 10.3593 4.34087 8.84809 5.17082 7.54696C6.00078 6.24582 7.18532 5.209 8.58489 4.55864Z" fill="#9693A4"/>
<path d="M12.5975 2.22744C12.4328 2.08096 12.22 2.00003 11.9996 2C11.7609 2 11.532 2.09482 11.3632 2.2636C11.1944 2.43239 11.0996 2.66131 11.0996 2.9V9.2L11.1059 9.3053C11.133 9.53309 11.2461 9.74193 11.422 9.88916C11.5979 10.0364 11.8234 10.1109 12.0524 10.0975C12.2814 10.084 12.4966 9.98363 12.654 9.81683C12.8115 9.65003 12.8994 9.42939 12.8996 9.2V2.9L12.8933 2.7947C12.8675 2.57577 12.7623 2.37393 12.5975 2.22744Z" fill="#736F86"/>
</svg>
