<svg width="351" height="148" viewBox="0 0 351 148" fill="none" xmlns="http://www.w3.org/2000/svg">
<g clip-path="url(#clip0_1485_2528)">
<path d="M53.8404 48.3147C50.9574 48.3147 48.5196 47.4105 46.5269 45.6021C44.5767 43.7485 43.6016 41.2167 43.6016 38.0068C43.6016 34.6613 44.5555 32.0391 46.4633 30.1402C48.4136 28.2414 50.8514 27.292 53.7768 27.292C55.8542 27.292 57.5713 27.6989 58.928 28.5127C60.2847 29.3265 61.3022 30.3663 61.9805 31.6322C62.6589 32.8981 62.9981 34.2318 62.9981 35.6333C62.9981 37.9842 62.0229 39.1597 60.0727 39.1597H49.5159C49.1767 39.1597 49.0071 39.3857 49.0071 39.8378C49.0071 40.8777 49.5371 41.714 50.597 42.347C51.6993 42.9347 52.9288 43.2286 54.2855 43.2286C55.1335 43.2286 55.9814 43.1156 56.8293 42.8895C57.6773 42.6183 58.4192 42.234 59.0552 41.7367C59.4791 41.4202 59.9243 41.262 60.3907 41.262C61.0266 41.262 61.5566 41.5106 61.9805 42.0079C62.4469 42.5052 62.6801 43.093 62.6801 43.7711C62.6801 44.5849 62.2773 45.3535 61.4718 46.0768C60.7086 46.755 59.5851 47.2975 58.1012 47.7044C56.6597 48.1113 55.2395 48.3147 53.8404 48.3147ZM57.1473 35.2264C57.2321 35.2264 57.3381 35.2038 57.4653 35.1586C57.6349 35.1134 57.7197 34.9551 57.7197 34.6839C57.7197 34.0057 57.3169 33.3954 56.5114 32.8528C55.7482 32.2651 54.7519 31.9713 53.5224 31.9713C52.2081 31.9713 51.127 32.2877 50.279 32.9207C49.4735 33.5084 49.0707 34.1187 49.0707 34.7517C49.0707 35.0682 49.2403 35.2264 49.5795 35.2264H57.1473Z" fill="#4E8AFF"/>
<path d="M69.7217 48.3147C68.9162 48.3147 68.2379 48.0661 67.6867 47.5688C67.1355 47.0715 66.86 46.4385 66.86 45.6699V20.4426C66.86 19.7193 67.1143 19.1089 67.6231 18.6116C68.1743 18.0691 68.8738 17.7979 69.7217 17.7979C70.5273 17.7979 71.1844 18.0691 71.6932 18.6116C72.2019 19.1089 72.4563 19.7419 72.4563 20.5105V45.6021C72.4563 46.3707 72.1808 47.0263 71.6296 47.5688C71.1208 48.0661 70.4849 48.3147 69.7217 48.3147Z" fill="#4E8AFF"/>
<path d="M79.8659 48.3147C79.0604 48.3147 78.382 48.0661 77.8309 47.5688C77.2797 47.0715 77.0041 46.4385 77.0041 45.6699V30.2759C77.0041 29.5525 77.2585 28.9422 77.7673 28.4449C78.3184 27.9023 79.018 27.6311 79.8659 27.6311C80.7138 27.6311 81.371 27.9023 81.8374 28.4449C82.3461 28.9422 82.6005 29.5751 82.6005 30.3437V45.6021C82.6005 46.3707 82.3249 47.0263 81.7738 47.5688C81.265 48.0661 80.629 48.3147 79.8659 48.3147ZM79.8659 24.2403C78.9756 24.2403 78.2124 23.9464 77.5765 23.3587C76.9405 22.7258 76.6226 21.9346 76.6226 20.9852C76.6226 20.1262 76.9405 19.3802 77.5765 18.7473C78.2124 18.1143 78.9756 17.7979 79.8659 17.7979C80.7138 17.7979 81.4346 18.1143 82.0281 18.7473C82.6641 19.3802 82.9821 20.1262 82.9821 20.9852C82.9821 21.9346 82.6641 22.7258 82.0281 23.3587C81.4346 23.9464 80.7138 24.2403 79.8659 24.2403Z" fill="#4E8AFF"/>
<path d="M96.4853 48.3147C95.7222 48.3147 95.0014 48.1339 94.3231 47.7722C93.6447 47.4105 93.1572 46.868 92.8604 46.1447L86.6917 31.2253C86.5645 30.8184 86.5009 30.4115 86.5009 30.0046C86.5009 29.1004 86.7977 28.4223 87.3912 27.9701C87.9848 27.518 88.6631 27.292 89.4263 27.292C90.0198 27.292 90.5286 27.4728 90.9526 27.8345C91.4189 28.151 91.7369 28.6031 91.9065 29.1908L95.6586 40.1091C95.8706 40.6968 96.1673 40.9907 96.5489 40.9907C96.8881 40.9907 97.1637 40.6968 97.3756 40.1091L100.873 29.1908C101.085 28.5579 101.425 28.0832 101.891 27.7667C102.357 27.4502 102.866 27.292 103.417 27.292C104.138 27.292 104.774 27.5407 105.325 28.038C105.919 28.4901 106.215 29.1908 106.215 30.1402C106.215 30.3211 106.215 30.5019 106.215 30.6828C106.215 30.8184 106.173 30.9992 106.088 31.2253L100.11 46.1447C99.8135 46.868 99.3259 47.4105 98.6476 47.7722C98.0116 48.1339 97.2909 48.3147 96.4853 48.3147Z" fill="#4E8AFF"/>
<path d="M117.746 48.3147C114.863 48.3147 112.425 47.4105 110.433 45.6021C108.482 43.7485 107.507 41.2167 107.507 38.0068C107.507 34.6613 108.461 32.0391 110.369 30.1402C112.319 28.2414 114.757 27.292 117.682 27.292C119.76 27.292 121.477 27.6989 122.834 28.5127C124.19 29.3265 125.208 30.3663 125.886 31.6322C126.564 32.8981 126.904 34.2318 126.904 35.6333C126.904 37.9842 125.929 39.1597 123.978 39.1597H113.421C113.082 39.1597 112.913 39.3857 112.913 39.8378C112.913 40.8777 113.443 41.714 114.503 42.347C115.605 42.9347 116.834 43.2286 118.191 43.2286C119.039 43.2286 119.887 43.1156 120.735 42.8895C121.583 42.6183 122.325 42.234 122.961 41.7367C123.385 41.4202 123.83 41.262 124.296 41.262C124.932 41.262 125.462 41.5106 125.886 42.0079C126.352 42.5052 126.586 43.093 126.586 43.7711C126.586 44.5849 126.183 45.3535 125.377 46.0768C124.614 46.755 123.491 47.2975 122.007 47.7044C120.565 48.1113 119.145 48.3147 117.746 48.3147ZM121.053 35.2264C121.138 35.2264 121.244 35.2038 121.371 35.1586C121.54 35.1134 121.625 34.9551 121.625 34.6839C121.625 34.0057 121.222 33.3954 120.417 32.8528C119.654 32.2651 118.657 31.9713 117.428 31.9713C116.114 31.9713 115.033 32.2877 114.185 32.9207C113.379 33.5084 112.976 34.1187 112.976 34.7517C112.976 35.0682 113.146 35.2264 113.485 35.2264H121.053Z" fill="#4E8AFF"/>
<path d="M133.564 48.1113C132.758 48.1113 132.08 47.8626 131.529 47.3653C130.978 46.868 130.702 46.2351 130.702 45.4665V30.2759C130.702 29.5525 130.956 28.9422 131.465 28.4449C132.016 27.9023 132.716 27.6311 133.564 27.6311C134.327 27.6311 134.942 27.8797 135.408 28.377C135.917 28.8291 136.214 29.3943 136.298 30.0724C136.765 29.3038 137.401 28.6483 138.206 28.1058C139.012 27.5633 139.86 27.292 140.75 27.292C141.301 27.292 141.831 27.3598 142.34 27.4954C142.933 27.6763 143.421 28.038 143.803 28.5805C144.184 29.0778 144.375 29.6655 144.375 30.3437C144.375 31.2931 144.078 32.0843 143.485 32.7172C142.933 33.305 142.276 33.5084 141.513 33.3276C140.962 33.1919 140.411 33.1241 139.86 33.1241C138.885 33.1241 138.079 33.4858 137.443 34.2092C136.807 34.9325 136.426 36.4019 136.298 38.6172V45.3987C136.298 46.1673 136.023 46.8228 135.472 47.3653C134.963 47.8626 134.327 48.1113 133.564 48.1113Z" fill="#4E8AFF"/>
<path d="M151.673 47.6366C150.486 47.6366 149.49 47.2297 148.684 46.4159C147.921 45.5569 147.54 44.4945 147.54 43.2286V24.3759C147.54 23.2005 147.921 22.2058 148.684 21.3921C149.448 20.5783 150.38 20.1714 151.483 20.1714H157.588C159.962 20.1714 161.87 20.8721 163.311 22.2737C164.753 23.63 165.474 25.3027 165.474 27.292C165.474 29.4169 164.816 31.1123 163.502 32.3781C165.792 33.644 166.936 35.8141 166.936 38.8884C166.936 41.4654 166.152 43.5677 164.583 45.1952C163.015 46.8228 160.916 47.6366 158.287 47.6366H151.673ZM154.09 42.2114H158.542C159.39 42.2114 160.089 41.9401 160.64 41.3976C161.234 40.8551 161.531 40.0639 161.531 39.024C161.531 37.9842 161.255 37.193 160.704 36.6505C160.153 36.108 159.432 35.8367 158.542 35.8367H154.09C153.454 35.8367 153.136 36.1758 153.136 36.854V41.1941C153.136 41.8723 153.454 42.2114 154.09 42.2114ZM154.09 30.6828H157.588C158.351 30.6828 158.944 30.4115 159.368 29.869C159.792 29.3265 160.004 28.7387 160.004 28.1058C160.004 27.4728 159.792 26.9077 159.368 26.4104C158.944 25.8679 158.351 25.5966 157.588 25.5966H154.09C153.454 25.5966 153.136 25.9357 153.136 26.6138V29.6655C153.136 30.3437 153.454 30.6828 154.09 30.6828Z" fill="#4E8AFF"/>
<path d="M173.995 48.3147C173.19 48.3147 172.511 48.0661 171.96 47.5688C171.409 47.0715 171.134 46.4385 171.134 45.6699V20.4426C171.134 19.7193 171.388 19.1089 171.897 18.6116C172.448 18.0691 173.147 17.7979 173.995 17.7979C174.801 17.7979 175.458 18.0691 175.967 18.6116C176.475 19.1089 176.73 19.7419 176.73 20.5105V45.6021C176.73 46.3707 176.454 47.0263 175.903 47.5688C175.394 48.0661 174.758 48.3147 173.995 48.3147Z" fill="#4E8AFF"/>
<path d="M190.843 48.3147C187.96 48.3147 185.522 47.4105 183.53 45.6021C181.579 43.7485 180.604 41.2167 180.604 38.0068C180.604 34.6613 181.558 32.0391 183.466 30.1402C185.416 28.2414 187.854 27.292 190.779 27.292C192.857 27.292 194.574 27.6989 195.931 28.5127C197.287 29.3265 198.305 30.3663 198.983 31.6322C199.662 32.8981 200.001 34.2318 200.001 35.6333C200.001 37.9842 199.026 39.1597 197.075 39.1597H186.519C186.179 39.1597 186.01 39.3857 186.01 39.8378C186.01 40.8777 186.54 41.714 187.6 42.347C188.702 42.9347 189.931 43.2286 191.288 43.2286C192.136 43.2286 192.984 43.1156 193.832 42.8895C194.68 42.6183 195.422 42.234 196.058 41.7367C196.482 41.4202 196.927 41.262 197.393 41.262C198.029 41.262 198.559 41.5106 198.983 42.0079C199.45 42.5052 199.683 43.093 199.683 43.7711C199.683 44.5849 199.28 45.3535 198.474 46.0768C197.711 46.755 196.588 47.2975 195.104 47.7044C193.662 48.1113 192.242 48.3147 190.843 48.3147ZM194.15 35.2264C194.235 35.2264 194.341 35.2038 194.468 35.1586C194.638 35.1134 194.722 34.9551 194.722 34.6839C194.722 34.0057 194.32 33.3954 193.514 32.8528C192.751 32.2651 191.755 31.9713 190.525 31.9713C189.211 31.9713 188.13 32.2877 187.282 32.9207C186.476 33.5084 186.073 34.1187 186.073 34.7517C186.073 35.0682 186.243 35.2264 186.582 35.2264H194.15Z" fill="#4E8AFF"/>
<path fill-rule="evenodd" clip-rule="evenodd" d="M18.1201 8.30401C28.9685 6.40578 39.3136 13.5941 41.2265 24.3595C43.1394 35.1249 35.8957 45.3908 25.0472 47.289L18.0189 48.5188C13.5206 49.3059 9.63826 52.1051 7.49396 56.1073C6.99708 57.0346 5.59917 56.8149 5.41538 55.7806L0.231247 26.605C-1.21264 18.479 4.25511 10.7301 12.4438 9.29723L18.1201 8.30401ZM19.3892 19.3023C23.9105 18.5112 28.222 21.507 29.0193 25.9937C29.8052 30.4165 26.8813 34.6506 22.4411 35.5195L19.2324 36.1474C17.489 36.4886 15.9796 37.5616 15.0931 39.0898C14.8783 39.4602 14.3145 39.3621 14.2394 38.9413L12.9562 31.7508C12.7623 30.6596 12.5747 29.6006 12.3897 28.5553C11.6286 24.2546 14.5241 20.1536 18.8576 19.3953L19.3892 19.3023Z" fill="#4E8AFF"/>
</g>
<path d="M18.4453 86.9219H15.8438V92.5938H12.0586C11.6016 89.9805 9.36328 88.2344 6.58594 88.2344C3.38672 88.2344 0.984375 90.4258 0.984375 93.5547C0.984375 96.6602 3.38672 98.8984 6.58594 98.8984C9.28125 98.8984 11.4727 97.2109 12.0117 94.7266H15.8438V102.438H18.4453V86.9219ZM3.46875 93.5547C3.46875 91.6797 4.81641 90.5078 6.58594 90.5078C8.32031 90.5078 9.64453 91.6797 9.65625 93.5547C9.64453 95.418 8.32031 96.6484 6.58594 96.6484C4.81641 96.6484 3.46875 95.418 3.46875 93.5547ZM4.54688 107.664H18.9844V105.555H7.14844V100.867H4.54688V107.664ZM39.4397 86.8984H36.9553V108.086H39.4397V86.8984ZM20.8303 102.062L22.4241 104.008C24.4163 102.766 25.7639 100.539 26.5139 97.9258C27.2522 100.34 28.553 102.355 30.51 103.516L32.0569 101.594C29.0217 99.8477 27.7444 96.2617 27.7444 92.6875V91.2812H31.1663V89.1719H21.5569V91.2812H25.2366V92.6875C25.2366 96.3789 23.8889 100.199 20.8303 102.062ZM29.6194 96.3906H32.6663V107.055H35.1272V87.2969H32.6663V94.2812H29.6194V96.3906ZM52.9519 88.4453C49.7644 88.4453 47.5027 91.3516 47.5144 95.9219C47.5027 100.527 49.7644 103.422 52.9519 103.422C55.8933 103.422 58.0495 100.902 58.3308 96.8125H62.3503V108.109H64.9284V86.8984H62.3503V94.7031H58.3073C57.9323 90.8359 55.8112 88.4453 52.9519 88.4453ZM50.0222 95.9219C50.0105 92.6875 51.2058 90.7891 52.9519 90.7891C54.7097 90.7891 55.8933 92.6875 55.905 95.9219C55.8933 99.1797 54.7097 101.066 52.9519 101.078C51.2058 101.066 50.0105 99.1797 50.0222 95.9219ZM85.29 86.8984H82.665V108.109H85.29V86.8984ZM68.9775 103H70.7822C75.2588 103 77.9892 102.883 81.0244 102.32L80.7666 100.164C77.9423 100.668 75.4931 100.773 71.6025 100.797V90.9531H79.1963V88.8203H68.9775V103ZM95.9953 91.9844V88.6094H93.3469V91.9844C93.3352 95.9453 91.4133 100.023 87.9563 101.641L89.5969 103.75C92.0344 102.52 93.7688 100.082 94.6945 97.1523C95.5969 99.9297 97.2844 102.18 99.675 103.352L101.245 101.266C97.8703 99.7891 95.9836 95.9219 95.9953 91.9844ZM98.9016 95.8516H103.355V108.109H105.933V86.8984H103.355V93.7422H98.9016V95.8516ZM128.404 95.0781H125.263V86.8984H122.662V108.039H125.263V97.2109H128.404V95.0781ZM109.419 102.812H111.201C114.341 102.801 117.728 102.613 121.302 101.898L121.021 99.6953C117.822 100.363 114.822 100.609 111.997 100.656V88.9609H109.419V102.812ZM151.361 86.8984H148.736V99.2734H151.361V94.2344H154.291V92.1016H151.361V86.8984ZM135.447 97.9375H137.158C141.857 97.9375 144.353 97.8438 147.096 97.2578L146.838 95.1719C144.342 95.6875 142.08 95.8164 138.025 95.8281V90.5078H144.939V88.3984H135.447V97.9375ZM137.275 103.844C137.275 106.516 140.064 108.062 144.447 108.062C148.795 108.062 151.537 106.516 151.549 103.844C151.537 101.219 148.795 99.6719 144.447 99.6719C140.064 99.6719 137.275 101.219 137.275 103.844ZM139.853 103.844C139.842 102.496 141.541 101.746 144.447 101.758C147.295 101.746 149.006 102.496 149.018 103.844C149.006 105.215 147.295 105.977 144.447 105.977C141.541 105.977 139.842 105.215 139.853 103.844ZM171.863 86.8984H169.238V99.2734H171.863V94.2344H174.793V92.1016H171.863V86.8984ZM155.949 97.9375H157.66C162.36 97.9375 164.856 97.8438 167.598 97.2578L167.34 95.1719C164.844 95.6875 162.582 95.8164 158.527 95.8281V90.5078H165.442V88.3984H155.949V97.9375ZM157.777 103.844C157.777 106.516 160.567 108.062 164.949 108.062C169.297 108.062 172.039 106.516 172.051 103.844C172.039 101.219 169.297 99.6719 164.949 99.6719C160.567 99.6719 157.777 101.219 157.777 103.844ZM160.356 103.844C160.344 102.496 162.043 101.746 164.949 101.758C167.797 101.746 169.508 102.496 169.52 103.844C169.508 105.215 167.797 105.977 164.949 105.977C162.043 105.977 160.344 105.215 160.356 103.844ZM192.342 86.8516H189.741V98.4062H192.342V93.7422H195.319V91.6328H192.342V86.8516ZM175.655 90.6016H188.217V88.6094H183.248V86.7344H180.647V88.6094H175.655V90.6016ZM176.733 94.7266C176.733 96.8945 178.807 98.1953 181.936 98.1953C185.077 98.1953 187.104 96.8945 187.116 94.7266C187.104 92.6172 185.077 91.2695 181.936 91.2578C178.807 91.2695 176.733 92.6172 176.733 94.7266ZM178.491 101.242H189.741V102.648H178.514V107.898H192.998V105.953H181.092V104.453H192.342V99.3438H178.491V101.242ZM179.264 94.7266C179.252 93.7188 180.295 93.1211 181.936 93.1328C183.577 93.1211 184.631 93.7188 184.631 94.7266C184.631 95.7695 183.577 96.3086 181.936 96.3203C180.295 96.3086 179.252 95.7695 179.264 94.7266ZM218.323 86.8984H215.698V99.2734H218.323V94.2344H221.253V92.1016H218.323V86.8984ZM202.409 97.9375H204.12C208.819 97.9375 211.315 97.8438 214.057 97.2578L213.8 95.1719C211.304 95.6875 209.042 95.8164 204.987 95.8281V90.5078H211.901V88.3984H202.409V97.9375ZM204.237 103.844C204.237 106.516 207.026 108.062 211.409 108.062C215.757 108.062 218.499 106.516 218.511 103.844C218.499 101.219 215.757 99.6719 211.409 99.6719C207.026 99.6719 204.237 101.219 204.237 103.844ZM206.815 103.844C206.804 102.496 208.503 101.746 211.409 101.758C214.257 101.746 215.968 102.496 215.979 103.844C215.968 105.215 214.257 105.977 211.409 105.977C208.503 105.977 206.804 105.215 206.815 103.844ZM239.739 86.9219H237.114V102.391H239.739V86.9219ZM222.114 97.3984L223.474 99.4609C225.97 98.5586 227.728 96.707 228.665 94.3867C229.603 96.5547 231.325 98.2422 233.739 99.0859L235.075 97.0234C231.712 95.8984 229.978 93.1094 229.989 90.1562V88.0938H227.294V90.1562C227.306 93.2031 225.548 96.1914 222.114 97.3984ZM225.724 107.664H240.325V105.555H228.349V100.914H225.724V107.664ZM249.46 88.375C246.132 88.3633 243.636 90.4844 243.648 93.4844C243.636 96.4961 246.132 98.6055 249.46 98.6172C252.824 98.6055 255.273 96.4961 255.296 93.4844C255.273 90.4844 252.824 88.3633 249.46 88.375ZM242.687 101.547L243.015 103.68C246.753 103.68 251.839 103.645 256.585 102.742L256.374 100.844C251.792 101.5 246.507 101.547 242.687 101.547ZM246.226 93.4844C246.214 91.7266 247.609 90.625 249.46 90.625C251.347 90.625 252.73 91.7266 252.742 93.4844C252.73 95.2539 251.335 96.3438 249.46 96.3438C247.609 96.3438 246.214 95.2539 246.226 93.4844ZM257.64 108.109H260.242V86.8984H257.64V108.109ZM285.262 86.8984H282.66V97.5391H285.262V93.3203H288.215V91.1641H285.262V86.8984ZM269.277 96.6484H279.308V87.9766H269.277V96.6484ZM271.41 100.469H282.66V102.109H271.433V107.828H285.918V105.766H274.012V104.008H285.262V98.4531H271.41V100.469ZM271.832 94.5859V90.0391H276.754V94.5859H271.832ZM305.647 86.8984H303.068V108.086H305.647V97.4922H308.904V95.3359H305.647V86.8984ZM288.936 92.2422H301.428V90.1562H296.553V87.2031H293.951V90.1562H288.936V92.2422ZM289.92 98.6172C289.897 101.535 292.17 103.586 295.264 103.586C298.311 103.586 300.572 101.535 300.584 98.6172C300.572 95.6875 298.311 93.6133 295.264 93.625C292.17 93.6133 289.897 95.6875 289.92 98.6172ZM292.404 98.6172C292.393 96.8945 293.6 95.7578 295.264 95.7578C296.893 95.7578 298.076 96.8945 298.1 98.6172C298.076 100.34 296.893 101.441 295.264 101.43C293.6 101.441 292.393 100.34 292.404 98.6172ZM327.25 86.8984H324.625V108.086H327.25V86.8984ZM309.696 102.25L311.055 104.336C318.473 100.809 320.922 95.4531 320.922 89.1484H310.774V91.2109H318.274C317.805 96.0273 315.25 99.6133 309.696 102.25ZM349.393 96.5078H330.034V98.4766H349.393V96.5078ZM332.284 101.57H344.471V102.883H332.307V107.852H347.682V106.047H334.909V104.57H347.049V99.7422H332.284V101.57ZM332.424 89.1719H344.401V90.4609H332.495V95.3125H347.378V93.5312H335.073V92.1484H347.003V87.3672H332.424V89.1719ZM18.3047 120.898H15.7266V131.586H18.3047V120.898ZM1.94531 130.766H3.75C8.47266 130.777 11.1211 130.613 14.1094 129.992L13.8047 127.977C11.0977 128.527 8.67188 128.68 4.57031 128.703V124.156H12.0234V122.07H1.94531V130.766ZM4.28906 134.539H15.7734V136.18H4.3125V141.945H18.9375V139.906H6.89062V138.078H18.3047V132.5H4.28906V134.539ZM38.8538 120.898H36.2756V142.109H38.8538V120.898ZM22.3538 124.859H29.6897V128.633H22.3772V137.094H24.2288C28.0373 137.105 31.2014 136.965 34.7991 136.344L34.5647 134.211C31.26 134.762 28.3889 134.938 25.0491 134.961V130.695H32.3381V122.75H22.3538V124.859ZM59.4731 120.898H56.895V128.492H52.5825V122.539H50.0278V127.812H45.1294V122.539H42.5044V136.977H52.5825V130.625H56.895V142.109H59.4731V120.898ZM45.1294 134.891V129.852H50.0278V134.891H45.1294ZM67.2956 121.273H64.7175V128.352H79.0144V121.273H76.4362V122.938H67.2956V121.273ZM62.2097 131.75H81.5222V129.711H62.2097V131.75ZM64.4831 135.172H76.5534V136.531H64.5066V141.898H79.6941V139.906H67.0612V138.359H79.1081V133.25H64.4831V135.172ZM67.2956 126.383V124.836H76.4362V126.383H67.2956ZM100.337 120.898H97.7119V142.109H100.337V120.898ZM83.3916 129.922C83.3798 134.527 85.7119 137.422 88.9228 137.422C92.0986 137.422 94.4423 134.527 94.4541 129.922C94.4423 125.352 92.0986 122.445 88.9228 122.445C85.7119 122.445 83.3798 125.352 83.3916 129.922ZM85.8994 129.922C85.8994 126.688 87.1298 124.789 88.9228 124.789C90.7041 124.789 91.9228 126.688 91.9228 129.922C91.9228 133.18 90.7041 135.066 88.9228 135.078C87.1298 135.066 85.8994 133.18 85.8994 129.922ZM127.982 130.953H108.669V133.016H127.982V130.953ZM110.662 125.492C110.662 128.059 113.662 129.594 118.302 129.594C122.955 129.594 125.931 128.059 125.943 125.492C125.931 122.961 122.955 121.391 118.302 121.391C113.662 121.391 110.662 122.961 110.662 125.492ZM110.919 138.242C110.919 140.715 113.673 142.098 118.302 142.086C122.861 142.098 125.626 140.715 125.638 138.242C125.626 135.758 122.861 134.387 118.302 134.398C113.673 134.387 110.919 135.758 110.919 138.242ZM113.38 125.492C113.357 124.145 115.208 123.43 118.302 123.43C121.396 123.43 123.247 124.145 123.247 125.492C123.247 126.852 121.396 127.566 118.302 127.555C115.208 127.566 113.357 126.852 113.38 125.492ZM113.568 138.242C113.556 137 115.22 136.367 118.302 136.367C121.337 136.367 123.013 137 123.037 138.242C123.013 139.449 121.337 140.082 118.302 140.07C115.22 140.082 113.556 139.449 113.568 138.242ZM146.937 120.922H144.312V133.273H140.164V135.102H144.312V136.953H146.937V120.922ZM129.078 130.438L129.406 132.523C131.07 132.523 132.957 132.512 134.937 132.43V136.367H137.539V132.289C139.332 132.16 141.136 131.973 142.883 131.68L142.742 129.805C138.242 130.379 132.98 130.414 129.078 130.438ZM130.695 125.445C130.695 127.719 132.851 129.16 135.992 129.172C139.074 129.16 141.242 127.719 141.265 125.445C141.242 123.207 139.074 121.684 135.992 121.695C132.851 121.684 130.695 123.207 130.695 125.445ZM131.89 141.664H147.429V139.555H134.492V135.406H131.89V141.664ZM133.156 125.445C133.156 124.297 134.293 123.605 135.992 123.617C137.609 123.605 138.769 124.297 138.781 125.445C138.769 126.594 137.609 127.262 135.992 127.273C134.293 127.262 133.156 126.594 133.156 125.445ZM166.385 120.898H163.783V133.273H166.385V128.281H169.338V126.125H166.385V120.898ZM149.697 124.953H162.26V122.867H157.291V120.734H154.689V122.867H149.697V124.953ZM150.775 129.406C150.775 131.656 152.885 133.145 155.978 133.133C159.037 133.145 161.146 131.656 161.158 129.406C161.146 127.156 159.037 125.68 155.978 125.68C152.885 125.68 150.775 127.156 150.775 129.406ZM152.697 141.828H166.385V134.117H163.783V135.945H155.275V134.117H152.697V141.828ZM153.307 129.406C153.295 128.293 154.373 127.602 155.978 127.602C157.584 127.602 158.674 128.293 158.674 129.406C158.674 130.555 157.584 131.211 155.978 131.211C154.373 131.211 153.295 130.555 153.307 129.406ZM155.275 139.766V137.961H163.783V139.766H155.275ZM187.848 120.898H185.27V142.086H187.848V120.898ZM171.395 136.766H173.223C176.516 136.777 179.973 136.531 183.699 135.758L183.371 133.578C180.102 134.234 176.938 134.492 173.973 134.539V122.961H171.395V136.766ZM207.272 120.898H204.67V142.109H207.272V131.07H210.53V128.938H207.272V120.898ZM191.545 136.93H193.303C197.123 136.93 199.971 136.836 203.264 136.273L202.959 134.07C200.053 134.574 197.44 134.738 194.147 134.75V125.023H201.459V122.914H191.545V136.93ZM213.758 140.188C214.731 140.188 215.563 139.367 215.563 138.359C215.563 137.375 214.731 136.566 213.758 136.555C212.751 136.566 211.919 137.375 211.93 138.359C211.919 139.367 212.751 140.188 213.758 140.188Z" fill="#4E8AFF"/>
<defs>
<clipPath id="clip0_1485_2528">
<rect width="200" height="64" fill="white"/>
</clipPath>
</defs>
</svg>
