<svg width="248" height="248" viewBox="0 0 248 248" fill="none" xmlns="http://www.w3.org/2000/svg">
<path d="M79.0159 94.6851C77.7026 87.6308 79.7579 80.6459 84.5601 75.8437L109.104 51.2998C113.919 46.4845 120.935 44.4428 128.004 45.7992C134.251 46.9978 140.115 50.1388 144.739 54.7628L198.013 108.037C202.695 112.719 205.861 118.668 207.04 124.998C208.353 132.052 206.298 139.037 201.496 143.839L176.952 168.383C172.136 173.198 165.121 175.24 158.052 173.884C151.805 172.685 145.941 169.544 141.317 164.92L88.0431 111.646C83.3604 106.963 80.1943 101.015 79.0159 94.6851Z" fill="#C2D6FF"/>
<path d="M67.4799 95.3468C66.2868 87.0054 69.1065 78.5688 75.0859 72.5894L105.646 42.0289C111.642 36.0332 120.115 33.2281 128.471 34.4718C135.856 35.5707 142.682 39.0059 147.95 44.2746L150.128 46.4527C152.131 48.4554 152.131 51.7024 150.128 53.7051L126.645 77.1888C124.23 79.6037 124.219 83.5083 126.621 85.9099C129.022 88.3116 132.927 88.3008 135.342 85.8859L156.612 64.6155C159.837 61.3904 165.066 61.3904 168.291 64.6155C171.516 67.8405 171.516 73.0693 168.291 76.2944L147.021 97.5649C144.606 99.9798 144.595 103.884 146.997 106.286C149.398 108.688 153.303 108.677 155.718 106.262L176.988 84.9915C180.213 81.7664 185.442 81.7664 188.667 84.9915C191.892 88.2165 191.892 93.4454 188.667 96.6704L167.397 117.941C164.982 120.356 164.971 124.26 167.373 126.662C169.774 129.064 173.679 129.053 176.094 126.638L199.578 103.154C201.58 101.152 204.827 101.152 206.83 103.154L208.653 104.977C213.988 110.313 217.449 117.238 218.519 124.722C219.712 133.064 216.893 141.5 210.913 147.48L180.353 178.04C174.357 184.036 165.885 186.841 157.528 185.597C150.144 184.498 143.318 181.063 138.049 175.795L136.119 173.865C134.117 171.862 134.117 168.615 136.119 166.613L159.603 143.129C162.018 140.714 162.029 136.809 159.627 134.408C157.225 132.006 153.321 132.017 150.906 134.432L129.635 155.702C126.41 158.927 121.182 158.927 117.957 155.702C114.732 152.477 114.731 147.248 117.957 144.023L139.227 122.753C141.642 120.338 141.653 116.433 139.251 114.032C136.849 111.63 132.945 111.641 130.53 114.056L109.259 135.326C106.034 138.551 100.806 138.551 97.5805 135.326C94.3555 132.101 94.3555 126.872 97.5805 123.647L118.851 102.377C121.266 99.9618 121.277 96.0573 118.875 93.6556C116.473 91.254 112.569 91.2648 110.154 93.6797L86.6702 117.163C84.6675 119.166 81.4205 119.166 79.4178 117.163L77.3465 115.092C72.0109 109.757 68.5504 102.831 67.4799 95.3468Z" fill="#4E8AFF" fill-opacity="0.15"/>
<path d="M162.598 170.13L162.598 218.901" stroke="url(#paint0_linear_1396_7305)" stroke-width="15"/>
<path d="M51.082 79.5981C51.082 77.2456 48.4142 76.0929 47.0189 77.9869C43.823 82.3252 41.9312 87.7049 41.9312 93.5318C41.9312 99.3586 43.823 104.738 47.0189 109.077C48.4142 110.971 51.082 109.818 51.082 107.465L51.082 79.5981Z" fill="#CADCFF"/>
<path d="M36.0703 73.4299C36.0703 69.7842 31.95 67.9727 29.7643 70.8906C24.8885 77.3993 22.0004 85.4833 22.0004 94.2419C22.0004 103.001 24.8885 111.085 29.7642 117.593C31.95 120.511 36.0703 118.7 36.0703 115.054L36.0703 73.4299Z" fill="#A7C5FF"/>
<defs>
<linearGradient id="paint0_linear_1396_7305" x1="163.098" y1="170.13" x2="163.098" y2="218.901" gradientUnits="userSpaceOnUse">
<stop stop-color="#B1CBFF"/>
<stop offset="1" stop-color="#B1CBFF" stop-opacity="0"/>
</linearGradient>
</defs>
</svg>
