<svg width="96" height="30" viewBox="0 0 96 30" fill="none" xmlns="http://www.w3.org/2000/svg">
<path fill-rule="evenodd" clip-rule="evenodd" d="M9.08967 4.15348C14.5317 3.20126 19.7211 6.80716 20.6807 12.2075C21.6403 17.6078 18.0066 22.7576 12.5646 23.7098L9.03891 24.3267C6.7824 24.7215 4.8349 26.1257 3.75924 28.1333C3.50999 28.5985 2.80875 28.4883 2.71655 27.9695L0.116002 13.3339C-0.608304 9.25763 2.13451 5.37047 6.24226 4.65171L9.08967 4.15348ZM9.72632 9.67062C11.9944 9.27376 14.1572 10.7766 14.5571 13.0273C14.9513 15.2459 13.4846 17.3699 11.2573 17.8058L9.64766 18.1208C8.77312 18.2919 8.01595 18.8301 7.57126 19.5967C7.46348 19.7825 7.18065 19.7334 7.14298 19.5223L6.4993 15.9152C6.40204 15.3679 6.30792 14.8366 6.21513 14.3123C5.83335 12.1549 7.28583 10.0976 9.45964 9.71728L9.72632 9.67062Z" fill="#4E8AFF"/>
<path d="M41.6875 6.5791H39.3424V15.0177H41.6875V6.5791ZM28.5957 14.4453H30.0545C33.8213 14.4637 35.9079 14.3437 38.1976 13.8544L37.9391 12.0633C35.9079 12.4695 34.0522 12.5895 30.9592 12.5988V9.33041H36.6096V7.4839H28.5957V14.4453ZM30.4422 23.2901H42.1307V21.462H32.7873V20.2618H41.6875V15.6824H30.4422V17.5105H39.3794V18.5815H30.4422V23.2901Z" fill="#160F35"/>
<path d="M58.0661 6.5791H55.7211V23.4193H58.0661V6.5791ZM44.8635 9.88437H50.4585V12.5988H44.882V19.4863H46.3961C49.4614 19.4863 51.9634 19.3847 54.7239 18.8954L54.5208 16.9935C52.0557 17.3997 49.8861 17.529 47.3194 17.5474V14.4637H52.859V7.98246H44.8635V9.88437Z" fill="#160F35"/>
<path d="M74.5001 6.5791H72.1735V12.5064H69.0529V7.87166H66.7448V11.9525H63.2918V7.87166H60.9467V19.4309H69.0529V14.4083H72.1735V23.4193H74.5001V6.5791ZM63.2918 17.5474V13.799H66.7448V17.5474H63.2918Z" fill="#160F35"/>
<path d="M80.9445 6.85608H78.6179V12.5064H90.0294V6.85608H87.6843V8.03785H80.9445V6.85608ZM76.6606 15.2577H91.9867V13.4297H76.6606V15.2577ZM78.4332 17.9721H87.7951V18.8584H78.4517V23.2716H90.5648V21.499H80.7598V20.5018H90.1217V16.2549H78.4332V17.9721ZM80.9445 10.7522V9.73665H87.6843V10.7522H80.9445Z" fill="#160F35"/>
</svg>
