<svg width="32" height="32" viewBox="0 0 32 32" fill="none" xmlns="http://www.w3.org/2000/svg">
<rect x="9.62793" y="4.05273" width="12.7445" height="17.5139" rx="6.37225" fill="#BAB7C3"/>
<path d="M8.24567 17.7656C8.06522 16.9658 7.27053 16.4637 6.4707 16.6441C5.67087 16.8246 5.16877 17.6193 5.34922 18.4191C5.8553 20.6622 8.00312 24.6642 12.7511 25.9594C12.9771 26.0211 13.1361 26.2228 13.1724 26.4543C13.3875 27.823 14.5721 28.8699 16.0012 28.8699C17.2919 28.8699 18.3831 28.0161 18.7409 26.8425C18.8775 26.3942 19.1869 25.9874 19.6342 25.8477C24.1158 24.4475 26.1617 20.6011 26.654 18.4191C26.8344 17.6193 26.3323 16.8246 25.5325 16.6441C24.7327 16.4637 23.938 16.9658 23.7575 17.7656C23.3445 19.5963 21.2234 23.4069 16.0016 23.4069C10.7798 23.4069 8.6587 19.5963 8.24567 17.7656Z" fill="#E8E7EB"/>
</svg>
