<svg width="32" height="32" viewBox="0 0 32 32" fill="none" xmlns="http://www.w3.org/2000/svg">
<rect x="9.77539" y="4.10742" width="12.4473" height="17.1055" rx="6.22363" fill="#4E8AFF"/>
<path d="M8.42531 17.5003C8.24906 16.7192 7.47291 16.2288 6.69174 16.405C5.91056 16.5813 5.42017 17.3574 5.59642 18.1386C6.09069 20.3293 8.18842 24.238 12.8256 25.503C13.0464 25.5632 13.2016 25.7603 13.2372 25.9864C13.4472 27.3232 14.6042 28.3456 16 28.3456C17.2605 28.3456 18.3263 27.5117 18.6757 26.3655C18.8092 25.9277 19.1114 25.5304 19.5483 25.3939C23.9253 24.0264 25.9235 20.2697 26.4043 18.1386C26.5805 17.3574 26.0901 16.5813 25.309 16.405C24.5278 16.2288 23.7516 16.7192 23.5754 17.5003C23.172 19.2883 21.1003 23.0101 16.0003 23.0101C10.9004 23.0101 8.8287 19.2883 8.42531 17.5003Z" fill="#A7C5FF"/>
</svg>
