<svg width="100" height="100" viewBox="0 0 100 100" fill="none" xmlns="http://www.w3.org/2000/svg">
<rect x="25.041" y="1" width="50.3268" height="69.1609" rx="25.1634" fill="#E8E7EB"/>
<path d="M19.5828 55.1518C18.8702 51.9933 15.7321 50.0105 12.5736 50.7231C9.41517 51.4358 7.43242 54.5739 8.14502 57.7323C10.1834 66.767 18.9668 83.0282 38.5111 87.802C38.7387 87.8576 38.904 88.0605 38.9162 88.2945C39.2288 94.2604 44.1651 99.0015 50.2088 99.0015C56.1174 99.0015 60.9676 94.4699 61.4736 88.6927C61.5145 88.2258 61.8406 87.8212 62.2949 87.7059C81.5693 82.8139 90.2505 66.7074 92.2755 57.7323C92.9881 54.5739 91.0053 51.4358 87.8468 50.7231C84.6884 50.0105 81.5503 51.9933 80.8377 55.1518C79.2067 62.3807 70.8305 77.4288 50.2102 77.4288C29.59 77.4288 21.2138 62.3807 19.5828 55.1518Z" fill="#F3F3F5"/>
</svg>
