<svg width="24" height="24" viewBox="0 0 24 24" fill="none" xmlns="http://www.w3.org/2000/svg">
<path fill-rule="evenodd" clip-rule="evenodd" d="M11.1213 4.0184C14.7227 3.38825 18.1569 5.77454 18.792 9.34834C19.427 12.9221 17.0223 16.3301 13.4209 16.9603L11.0877 17.3685C9.59439 17.6298 8.30558 18.5591 7.59373 19.8877C7.42878 20.1955 6.96472 20.1226 6.9037 19.7792L5.18272 10.0938C4.7034 7.3962 6.51853 4.82378 9.23693 4.34812L11.1213 4.0184ZM11.5426 7.66951C13.0435 7.40688 14.4748 8.40141 14.7395 9.89087C15.0004 11.3591 14.0297 12.7647 12.5557 13.0531L11.4905 13.2616C10.9118 13.3749 10.4107 13.731 10.1164 14.2384C10.0451 14.3613 9.85794 14.3288 9.83301 14.1891L9.40704 11.802C9.34267 11.4398 9.28038 11.0883 9.21898 10.7413C8.96633 9.31352 9.92754 7.95211 11.3661 7.70039L11.5426 7.66951Z" fill="white"/>
</svg>
