<svg width="24" height="24" viewBox="0 0 24 24" fill="none" xmlns="http://www.w3.org/2000/svg">
<g clip-path="url(#clip0_3565_18346)">
<circle cx="12" cy="12" r="11" stroke="white" stroke-width="2"/>
<path d="M12 15.8C12.2984 15.8 12.5845 15.9159 12.7955 16.1222C13.0065 16.3285 13.125 16.6083 13.125 16.9C13.125 17.1917 13.0065 17.4715 12.7955 17.6778C12.5845 17.8841 12.2984 18 12 18C11.7016 18 11.4155 17.8841 11.2045 17.6778C10.9935 17.4715 10.875 17.1917 10.875 16.9C10.875 16.6083 10.9935 16.3285 11.2045 16.1222C11.4155 15.9159 11.7016 15.8 12 15.8ZM12 7C12.7956 7 13.5587 7.30905 14.1213 7.85915C14.6839 8.40926 15 9.15536 15 9.93333C15 11.004 14.682 11.6053 13.869 12.4384L13.473 12.8344C12.9075 13.4093 12.75 13.7203 12.75 14.3333C12.75 14.5278 12.671 14.7144 12.5303 14.8519C12.3897 14.9894 12.1989 15.0667 12 15.0667C11.8011 15.0667 11.6103 14.9894 11.4697 14.8519C11.329 14.7144 11.25 14.5278 11.25 14.3333C11.25 13.2627 11.568 12.6613 12.381 11.8283L12.777 11.4323C13.3425 10.8573 13.5 10.5464 13.5 9.93333C13.5 9.54435 13.342 9.1713 13.0607 8.89624C12.7794 8.62119 12.3978 8.46667 12 8.46667C11.6022 8.46667 11.2206 8.62119 10.9393 8.89624C10.658 9.1713 10.5 9.54435 10.5 9.93333C10.5 10.1278 10.421 10.3144 10.2803 10.4519C10.1397 10.5894 9.94891 10.6667 9.75 10.6667C9.55109 10.6667 9.36032 10.5894 9.21967 10.4519C9.07902 10.3144 9 10.1278 9 9.93333C9 9.15536 9.31607 8.40926 9.87868 7.85915C10.4413 7.30905 11.2043 7 12 7Z" fill="white"/>
</g>
<defs>
<clipPath id="clip0_3565_18346">
<rect width="24" height="24" fill="white"/>
</clipPath>
</defs>
</svg>
