<svg width="48" height="48" viewBox="0 0 48 48" fill="none" xmlns="http://www.w3.org/2000/svg">
<path fill-rule="evenodd" clip-rule="evenodd" d="M8 11C8 8.79086 9.79086 7 12 7H32C34.2091 7 36 8.79086 36 11V36C36 38.2091 34.2091 40 32 40H12C9.79086 40 8 38.2091 8 36V11ZM13 15.5C13 14.6716 13.6716 14 14.5 14H22.5C23.3284 14 24 14.6716 24 15.5C24 16.3284 23.3284 17 22.5 17H14.5C13.6716 17 13 16.3284 13 15.5ZM14.5 20.5C13.6716 20.5 13 21.1716 13 22C13 22.8284 13.6716 23.5 14.5 23.5H29.5C30.3284 23.5 31 22.8284 31 22C31 21.1716 30.3284 20.5 29.5 20.5H14.5Z" fill="#A7C5FF"/>
<path fill-rule="evenodd" clip-rule="evenodd" d="M19 30H37C38.1046 30 39 30.8954 39 32V35C39 37.7614 36.7614 40 34 40H12C14.7614 40 17 37.7614 17 35V32C17 30.8954 17.8954 30 19 30Z" fill="#4E8AFF"/>
</svg>
