<svg width="48" height="48" viewBox="0 0 48 48" fill="none" xmlns="http://www.w3.org/2000/svg">
<path d="M24.0059 4C16.491 4 14.2932 4.00775 13.866 4.0432C12.3239 4.17143 11.3642 4.41431 10.3188 4.93497C9.51306 5.33516 8.87764 5.79904 8.25053 6.44931C7.10844 7.6352 6.41626 9.09415 6.16569 10.8284C6.04387 11.6703 6.00843 11.842 6.00123 16.1424C5.99846 17.5759 6.00123 19.4625 6.00123 21.9929C6.00123 29.5037 6.00954 31.6999 6.04553 32.1264C6.17012 33.6275 6.40546 34.5718 6.90383 35.6049C7.85627 37.5823 9.67531 39.0667 11.8183 39.6206C12.5603 39.8117 13.3798 39.9169 14.432 39.9668C14.8777 39.9862 19.4212 40 23.9674 40C28.5136 40 33.0598 39.9945 33.4945 39.9723C34.7128 39.915 35.4202 39.82 36.2023 39.6178C37.2649 39.3452 38.2552 38.8439 39.104 38.1489C39.9528 37.4539 40.6398 36.5819 41.1168 35.5938C41.6055 34.5857 41.8533 33.6053 41.9654 32.1826C41.9898 31.8724 42 26.927 42 21.9882C42 17.0486 41.9889 12.1123 41.9646 11.8021C41.851 10.3565 41.6032 9.38439 41.0988 8.35692C40.6849 7.51584 40.2253 6.88772 39.558 6.24548C38.3675 5.10779 36.9111 4.41542 35.1754 4.16506C34.3345 4.04348 34.167 4.00748 29.8645 4H24.0059Z" fill="url(#paint0_radial_1485_2545)"/>
<path d="M24.0059 4C16.491 4 14.2932 4.00775 13.866 4.0432C12.3239 4.17143 11.3642 4.41431 10.3188 4.93497C9.51306 5.33516 8.87764 5.79904 8.25053 6.44931C7.10844 7.6352 6.41626 9.09415 6.16569 10.8284C6.04387 11.6703 6.00843 11.842 6.00123 16.1424C5.99846 17.5759 6.00123 19.4625 6.00123 21.9929C6.00123 29.5037 6.00954 31.6999 6.04553 32.1264C6.17012 33.6275 6.40546 34.5718 6.90383 35.6049C7.85627 37.5823 9.67531 39.0667 11.8183 39.6206C12.5603 39.8117 13.3798 39.9169 14.432 39.9668C14.8777 39.9862 19.4212 40 23.9674 40C28.5136 40 33.0598 39.9945 33.4945 39.9723C34.7128 39.915 35.4202 39.82 36.2023 39.6178C37.2649 39.3452 38.2552 38.8439 39.104 38.1489C39.9528 37.4539 40.6398 36.5819 41.1168 35.5938C41.6055 34.5857 41.8533 33.6053 41.9654 32.1826C41.9898 31.8724 42 26.927 42 21.9882C42 17.0486 41.9889 12.1123 41.9646 11.8021C41.851 10.3565 41.6032 9.38439 41.0988 8.35692C40.6849 7.51584 40.2253 6.88772 39.558 6.24548C38.3675 5.10779 36.9111 4.41542 35.1754 4.16506C34.3345 4.04348 34.167 4.00748 29.8645 4H24.0059Z" fill="url(#paint1_radial_1485_2545)"/>
<path d="M23.9957 8.70752C20.3864 8.70752 19.9335 8.72331 18.5159 8.78783C17.1011 8.85264 16.1353 9.07669 15.2903 9.40542C14.4163 9.74496 13.6748 10.1992 12.9361 10.9383C12.1969 11.6772 11.7428 12.4189 11.4022 13.2929C11.0728 14.1384 10.8485 15.1047 10.7848 16.5193C10.7217 17.9373 10.7051 18.3907 10.7051 22.001C10.7051 25.6112 10.7211 26.0629 10.7854 27.4809C10.8504 28.8961 11.0744 29.8621 11.4028 30.7073C11.7425 31.5816 12.1966 32.3233 12.9356 33.0622C13.674 33.8016 14.4154 34.2569 15.289 34.5965C16.1345 34.9252 17.1005 35.1493 18.5151 35.2141C19.9326 35.2786 20.3853 35.2944 23.9943 35.2944C27.6039 35.2944 28.0555 35.2786 29.4731 35.2141C30.8879 35.1493 31.8547 34.9252 32.7003 34.5965C33.5741 34.2569 34.3144 33.8016 35.0528 33.0622C35.7921 32.3233 36.2462 31.5816 36.5867 30.7076C36.9134 29.8621 37.1377 28.8958 37.2041 27.4812C37.2678 26.0632 37.2844 25.6112 37.2844 22.001C37.2844 18.3907 37.2678 17.9376 37.2041 16.5196C37.1377 15.1044 36.9134 14.1384 36.5867 13.2932C36.2462 12.4189 35.7921 11.6772 35.0528 10.9383C34.3136 10.1989 33.5743 9.74468 32.6994 9.40542C31.8522 9.07669 30.8859 8.85264 29.4711 8.78783C28.0535 8.72331 27.6022 8.70752 23.9918 8.70752H23.9957ZM22.8035 11.1031C23.1574 11.1026 23.5522 11.1031 23.9957 11.1031C27.5441 11.1031 27.9647 11.1158 29.3659 11.1795C30.6617 11.2388 31.3649 11.4554 31.8334 11.6373C32.4536 11.8783 32.8957 12.1663 33.3606 12.6316C33.8257 13.0968 34.1137 13.54 34.3551 14.1603C34.537 14.6284 34.7538 15.3318 34.8128 16.6279C34.8765 18.0293 34.8903 18.4502 34.8903 21.9979C34.8903 25.5456 34.8765 25.9665 34.8128 27.3679C34.7535 28.664 34.537 29.3675 34.3551 29.8355C34.1142 30.4558 33.8257 30.8976 33.3606 31.3626C32.8955 31.8278 32.4538 32.1159 31.8334 32.3568C31.3655 32.5396 30.6617 32.7556 29.3659 32.8149C27.9649 32.8786 27.5441 32.8924 23.9957 32.8924C20.4471 32.8924 20.0265 32.8786 18.6255 32.8149C17.3298 32.7551 16.6265 32.5385 16.1578 32.3565C15.5376 32.1156 15.0946 31.8276 14.6294 31.3623C14.1643 30.897 13.8764 30.455 13.6349 29.8344C13.453 29.3663 13.2362 28.6629 13.1773 27.3668C13.1136 25.9654 13.1008 25.5445 13.1008 21.9946C13.1008 18.4447 13.1136 18.0259 13.1773 16.6246C13.2365 15.3285 13.453 14.625 13.6349 14.1564C13.8758 13.5361 14.1643 13.093 14.6294 12.6277C15.0946 12.1624 15.5376 11.8744 16.1578 11.6329C16.6262 11.4501 17.3298 11.2341 18.6255 11.1746C19.8515 11.1192 20.3266 11.1026 22.8035 11.0998V11.1031ZM31.0897 13.3104C30.7743 13.3104 30.4659 13.4039 30.2036 13.5792C29.9414 13.7546 29.737 14.0037 29.6163 14.2952C29.4956 14.5868 29.464 14.9075 29.5256 15.217C29.5872 15.5265 29.7391 15.8107 29.9622 16.0338C30.1853 16.2568 30.4695 16.4087 30.7789 16.4702C31.0883 16.5317 31.409 16.5 31.7004 16.3792C31.9918 16.2584 32.2408 16.0538 32.416 15.7914C32.5912 15.529 32.6846 15.2206 32.6845 14.905C32.6845 14.0243 31.9702 13.3098 31.0897 13.3098V13.3104ZM23.9957 15.1742C20.2267 15.1742 17.1708 18.2309 17.1708 22.001C17.1708 25.771 20.2267 28.8263 23.9957 28.8263C27.7648 28.8263 30.8198 25.771 30.8198 22.001C30.8198 18.2309 27.7645 15.1742 23.9954 15.1742H23.9957ZM23.9957 17.5698C26.4422 17.5698 28.4257 19.5536 28.4257 22.001C28.4257 24.448 26.4422 26.4321 23.9957 26.4321C21.549 26.4321 19.5658 24.448 19.5658 22.001C19.5658 19.5536 21.549 17.5698 23.9957 17.5698Z" fill="white"/>
<defs>
<radialGradient id="paint0_radial_1485_2545" cx="0" cy="0" r="1" gradientUnits="userSpaceOnUse" gradientTransform="translate(15.5625 42.7728) rotate(-90) scale(35.6787 33.184)">
<stop stop-color="#FFDD55"/>
<stop offset="0.1" stop-color="#FFDD55"/>
<stop offset="0.5" stop-color="#FF543E"/>
<stop offset="1" stop-color="#C837AB"/>
</radialGradient>
<radialGradient id="paint1_radial_1485_2545" cx="0" cy="0" r="1" gradientUnits="userSpaceOnUse" gradientTransform="translate(-0.0301903 6.59338) rotate(78.6806) scale(15.9485 65.7404)">
<stop stop-color="#3771C8"/>
<stop offset="0.128" stop-color="#3771C8"/>
<stop offset="1" stop-color="#6600FF" stop-opacity="0"/>
</radialGradient>
</defs>
</svg>
